{"glyphs":{"0":{"ha":764,"x_min":42,"x_max":722,"o":"m 590 44 l 582 36 l 576 31 l 571 26 l 564 24 l 558 24 l 149 24 l 128 25 l 111 33 l 100 42 l 96 46 l 197 151 l 499 151 l 594 50 l 590 44 m 90 513 l 104 525 l 110 531 l 122 538 l 129 540 q 144 528 139 533 l 171 504 l 174 501 q 200 475 185 493 l 213 463 l 185 169 l 79 61 l 72 68 l 65 78 l 54 97 q 44 122 47 118 l 42 128 l 42 135 l 86 508 l 90 513 m 642 104 q 611 69 638 96 q 606 73 610 71 q 592 86 601 75 l 563 117 l 558 119 l 525 154 l 511 171 l 544 472 l 554 482 q 579 506 567 493 l 582 510 l 585 513 l 608 532 q 617 537 613 535 q 624 540 622 539 l 635 535 l 651 525 l 654 521 l 660 519 l 678 504 l 685 499 l 644 119 l 642 104 m 675 603 l 660 589 l 657 586 l 638 572 l 626 568 q 611 579 617 574 l 590 597 l 586 600 l 583 606 l 561 629 q 553 638 557 635 q 550 642 550 640 l 585 906 l 597 921 l 628 957 l 631 960 l 633 963 l 663 993 l 681 1007 l 688 1003 q 696 994 694 997 l 701 988 l 707 982 q 717 963 713 968 l 722 956 l 683 610 l 675 603 m 129 974 l 133 978 q 150 1007 144 1003 l 158 1018 l 258 908 l 228 649 l 215 638 l 185 613 l 181 611 l 149 586 l 133 576 l 125 582 l 117 594 l 114 599 l 111 603 l 99 624 l 93 631 l 129 968 l 129 974 m 190 1046 l 203 1051 l 221 1056 l 608 1056 l 615 1054 q 631 1047 624 1054 l 647 1038 q 653 1033 651 1036 q 656 1028 654 1029 q 651 1021 654 1026 q 642 1007 649 1015 l 613 974 l 611 969 l 575 932 l 561 917 l 286 917 l 178 1036 l 190 1046 z "},"1":{"ha":764,"x_min":511,"x_max":722,"o":"m 642 104 q 611 69 638 96 q 606 73 610 71 q 592 86 601 75 l 563 117 l 558 119 l 525 154 l 511 171 l 544 472 l 554 482 q 579 506 567 493 l 582 510 l 585 513 l 608 532 q 617 537 613 535 q 624 540 622 539 l 635 535 l 651 525 l 654 521 l 660 519 l 678 504 l 685 499 l 644 119 l 642 104 m 675 603 l 660 589 l 657 586 l 638 572 l 626 568 q 611 579 617 574 l 590 597 l 586 600 l 583 606 l 561 629 q 553 638 557 635 q 550 642 550 640 l 585 906 l 597 921 l 628 957 l 631 960 l 633 963 l 663 993 l 681 1007 l 688 1003 q 696 994 694 997 l 701 988 l 707 982 q 717 963 713 968 l 722 956 l 683 610 l 675 603 z "},"2":{"ha":764,"x_min":42,"x_max":722,"o":"m 590 44 l 582 36 l 576 31 l 571 26 l 564 24 l 558 24 l 149 24 l 128 25 l 111 33 l 100 42 l 96 46 l 197 151 l 499 151 l 594 50 l 590 44 m 90 513 l 104 525 l 110 531 l 122 538 l 129 540 q 144 528 139 533 l 171 504 l 174 501 q 200 475 185 493 l 213 463 l 185 169 l 79 61 l 72 68 l 65 78 l 54 97 q 44 122 47 118 l 42 128 l 42 135 l 86 508 l 90 513 m 590 543 l 568 522 l 565 518 l 540 499 l 529 488 l 218 488 l 207 496 q 185 518 192 508 l 179 521 l 176 525 q 158 540 165 532 q 151 550 151 547 q 149 557 150 553 q 158 568 153 565 l 185 590 l 188 594 l 217 615 l 228 625 l 539 625 q 549 615 546 621 l 568 594 l 572 592 l 575 589 q 592 568 588 576 q 600 557 597 564 q 590 543 594 547 m 675 603 l 660 589 l 657 586 l 638 572 l 626 568 q 611 579 617 574 l 590 597 l 586 600 l 583 606 l 561 629 q 553 638 557 635 q 550 642 550 640 l 585 906 l 597 921 l 628 957 l 631 960 l 633 963 l 663 993 l 681 1007 l 688 1003 q 696 994 694 997 l 701 988 l 707 982 q 717 963 713 968 l 722 956 l 683 610 l 675 603 m 190 1046 l 203 1051 l 221 1056 l 608 1056 l 615 1054 q 631 1047 624 1054 l 647 1038 q 653 1033 651 1036 q 656 1028 654 1029 q 651 1021 654 1026 q 642 1007 649 1015 l 613 974 l 611 969 l 575 932 l 561 917 l 286 917 l 178 1036 l 190 1046 z "},"3":{"ha":764,"x_min":96,"x_max":722,"o":"m 590 44 l 582 36 l 576 31 l 571 26 l 564 24 l 558 24 l 149 24 l 128 25 l 111 33 l 100 42 l 96 46 l 197 151 l 499 151 l 594 50 l 590 44 m 642 104 q 611 69 638 96 q 606 73 610 71 q 592 86 601 75 l 563 117 l 558 119 l 525 154 l 511 171 l 544 472 l 554 482 q 579 506 567 493 l 582 510 l 585 513 l 608 532 q 617 537 613 535 q 624 540 622 539 l 635 535 l 651 525 l 654 521 l 660 519 l 678 504 l 685 499 l 644 119 l 642 104 m 590 543 l 568 522 l 565 518 l 540 499 l 529 488 l 218 488 l 207 496 q 185 518 192 508 l 179 521 l 176 525 q 158 540 165 532 q 151 550 151 547 q 149 557 150 553 q 158 568 153 565 l 185 590 l 188 594 l 217 615 l 228 625 l 539 625 q 549 615 546 621 l 568 594 l 572 592 l 575 589 q 592 568 588 576 q 600 557 597 564 q 590 543 594 547 m 675 603 l 660 589 l 657 586 l 638 572 l 626 568 q 611 579 617 574 l 590 597 l 586 600 l 583 606 l 561 629 q 553 638 557 635 q 550 642 550 640 l 585 906 l 597 921 l 628 957 l 631 960 l 633 963 l 663 993 l 681 1007 l 688 1003 q 696 994 694 997 l 701 988 l 707 982 q 717 963 713 968 l 722 956 l 683 610 l 675 603 m 190 1046 l 203 1051 l 221 1056 l 608 1056 l 615 1054 q 631 1047 624 1054 l 647 1038 q 653 1033 651 1036 q 656 1028 654 1029 q 651 1021 654 1026 q 642 1007 649 1015 l 613 974 l 611 969 l 575 932 l 561 917 l 286 917 l 178 1036 l 190 1046 z "},"4":{"ha":764,"x_min":93,"x_max":722,"o":"m 642 104 q 611 69 638 96 q 606 73 610 71 q 592 86 601 75 l 563 117 l 558 119 l 525 154 l 511 171 l 544 472 l 554 482 q 579 506 567 493 l 582 510 l 585 513 l 608 532 q 617 537 613 535 q 624 540 622 539 l 635 535 l 651 525 l 654 521 l 660 519 l 678 504 l 685 499 l 644 119 l 642 104 m 590 543 l 568 522 l 565 518 l 540 499 l 529 488 l 218 488 l 207 496 q 185 518 192 508 l 179 521 l 176 525 q 158 540 165 532 q 151 550 151 547 q 149 557 150 553 q 158 568 153 565 l 185 590 l 188 594 l 217 615 l 228 625 l 539 625 q 549 615 546 621 l 568 594 l 572 592 l 575 589 q 592 568 588 576 q 600 557 597 564 q 590 543 594 547 m 675 603 l 660 589 l 657 586 l 638 572 l 626 568 q 611 579 617 574 l 590 597 l 586 600 l 583 606 l 561 629 q 553 638 557 635 q 550 642 550 640 l 585 906 l 597 921 l 628 957 l 631 960 l 633 963 l 663 993 l 681 1007 l 688 1003 q 696 994 694 997 l 701 988 l 707 982 q 717 963 713 968 l 722 956 l 683 610 l 675 603 m 129 974 l 133 978 q 150 1007 144 1003 l 158 1018 l 258 908 l 228 649 l 215 638 l 185 613 l 181 611 l 149 586 l 133 576 l 125 582 l 117 594 l 114 599 l 111 603 l 99 624 l 93 631 l 129 968 l 129 974 z "},"5":{"ha":764,"x_min":93,"x_max":685,"o":"m 590 44 l 582 36 l 576 31 l 571 26 l 564 24 l 558 24 l 149 24 l 128 25 l 111 33 l 100 42 l 96 46 l 197 151 l 499 151 l 594 50 l 590 44 m 642 104 q 611 69 638 96 q 606 73 610 71 q 592 86 601 75 l 563 117 l 558 119 l 525 154 l 511 171 l 544 472 l 554 482 q 579 506 567 493 l 582 510 l 585 513 l 608 532 q 617 537 613 535 q 624 540 622 539 l 635 535 l 651 525 l 654 521 l 660 519 l 678 504 l 685 499 l 644 119 l 642 104 m 590 543 l 568 522 l 565 518 l 540 499 l 529 488 l 218 488 l 207 496 q 185 518 192 508 l 179 521 l 176 525 q 158 540 165 532 q 151 550 151 547 q 149 557 150 553 q 158 568 153 565 l 185 590 l 188 594 l 217 615 l 228 625 l 539 625 q 549 615 546 621 l 568 594 l 572 592 l 575 589 q 592 568 588 576 q 600 557 597 564 q 590 543 594 547 m 129 974 l 133 978 q 150 1007 144 1003 l 158 1018 l 258 908 l 228 649 l 215 638 l 185 613 l 181 611 l 149 586 l 133 576 l 125 582 l 117 594 l 114 599 l 111 603 l 99 624 l 93 631 l 129 968 l 129 974 m 190 1046 l 203 1051 l 221 1056 l 608 1056 l 615 1054 q 631 1047 624 1054 l 647 1038 q 653 1033 651 1036 q 656 1028 654 1029 q 651 1021 654 1026 q 642 1007 649 1015 l 613 974 l 611 969 l 575 932 l 561 917 l 286 917 l 178 1036 l 190 1046 z "},"6":{"ha":764,"x_min":42,"x_max":685,"o":"m 590 44 l 582 36 l 576 31 l 571 26 l 564 24 l 558 24 l 149 24 l 128 25 l 111 33 l 100 42 l 96 46 l 197 151 l 499 151 l 594 50 l 590 44 m 90 513 l 104 525 l 110 531 l 122 538 l 129 540 q 144 528 139 533 l 171 504 l 174 501 q 200 475 185 493 l 213 463 l 185 169 l 79 61 l 72 68 l 65 78 l 54 97 q 44 122 47 118 l 42 128 l 42 135 l 86 508 l 90 513 m 642 104 q 611 69 638 96 q 606 73 610 71 q 592 86 601 75 l 563 117 l 558 119 l 525 154 l 511 171 l 544 472 l 554 482 q 579 506 567 493 l 582 510 l 585 513 l 608 532 q 617 537 613 535 q 624 540 622 539 l 635 535 l 651 525 l 654 521 l 660 519 l 678 504 l 685 499 l 644 119 l 642 104 m 590 543 l 568 522 l 565 518 l 540 499 l 529 488 l 218 488 l 207 496 q 185 518 192 508 l 179 521 l 176 525 q 158 540 165 532 q 151 550 151 547 q 149 557 150 553 q 158 568 153 565 l 185 590 l 188 594 l 217 615 l 228 625 l 539 625 q 549 615 546 621 l 568 594 l 572 592 l 575 589 q 592 568 588 576 q 600 557 597 564 q 590 543 594 547 m 129 974 l 133 978 q 150 1007 144 1003 l 158 1018 l 258 908 l 228 649 l 215 638 l 185 613 l 181 611 l 149 586 l 133 576 l 125 582 l 117 594 l 114 599 l 111 603 l 99 624 l 93 631 l 129 968 l 129 974 m 190 1046 l 203 1051 l 221 1056 l 608 1056 l 615 1054 q 631 1047 624 1054 l 647 1038 q 653 1033 651 1036 q 656 1028 654 1029 q 651 1021 654 1026 q 642 1007 649 1015 l 613 974 l 611 969 l 575 932 l 561 917 l 286 917 l 178 1036 l 190 1046 z "},"7":{"ha":764,"x_min":178,"x_max":722,"o":"m 642 104 q 611 69 638 96 q 606 73 610 71 q 592 86 601 75 l 563 117 l 558 119 l 525 154 l 511 171 l 544 472 l 554 482 q 579 506 567 493 l 582 510 l 585 513 l 608 532 q 617 537 613 535 q 624 540 622 539 l 635 535 l 651 525 l 654 521 l 660 519 l 678 504 l 685 499 l 644 119 l 642 104 m 675 603 l 660 589 l 657 586 l 638 572 l 626 568 q 611 579 617 574 l 590 597 l 586 600 l 583 606 l 561 629 q 553 638 557 635 q 550 642 550 640 l 585 906 l 597 921 l 628 957 l 631 960 l 633 963 l 663 993 l 681 1007 l 688 1003 q 696 994 694 997 l 701 988 l 707 982 q 717 963 713 968 l 722 956 l 683 610 l 675 603 m 190 1046 l 203 1051 l 221 1056 l 608 1056 l 615 1054 q 631 1047 624 1054 l 647 1038 q 653 1033 651 1036 q 656 1028 654 1029 q 651 1021 654 1026 q 642 1007 649 1015 l 613 974 l 611 969 l 575 932 l 561 917 l 286 917 l 178 1036 l 190 1046 z "},"8":{"ha":764,"x_min":42,"x_max":722,"o":"m 590 44 l 582 36 l 576 31 l 571 26 l 564 24 l 558 24 l 149 24 l 128 25 l 111 33 l 100 42 l 96 46 l 197 151 l 499 151 l 594 50 l 590 44 m 90 513 l 104 525 l 110 531 l 122 538 l 129 540 q 144 528 139 533 l 171 504 l 174 501 q 200 475 185 493 l 213 463 l 185 169 l 79 61 l 72 68 l 65 78 l 54 97 q 44 122 47 118 l 42 128 l 42 135 l 86 508 l 90 513 m 642 104 q 611 69 638 96 q 606 73 610 71 q 592 86 601 75 l 563 117 l 558 119 l 525 154 l 511 171 l 544 472 l 554 482 q 579 506 567 493 l 582 510 l 585 513 l 608 532 q 617 537 613 535 q 624 540 622 539 l 635 535 l 651 525 l 654 521 l 660 519 l 678 504 l 685 499 l 644 119 l 642 104 m 590 543 l 568 522 l 565 518 l 540 499 l 529 488 l 218 488 l 207 496 q 185 518 192 508 l 179 521 l 176 525 q 158 540 165 532 q 151 550 151 547 q 149 557 150 553 q 158 568 153 565 l 185 590 l 188 594 l 217 615 l 228 625 l 539 625 q 549 615 546 621 l 568 594 l 572 592 l 575 589 q 592 568 588 576 q 600 557 597 564 q 590 543 594 547 m 675 603 l 660 589 l 657 586 l 638 572 l 626 568 q 611 579 617 574 l 590 597 l 586 600 l 583 606 l 561 629 q 553 638 557 635 q 550 642 550 640 l 585 906 l 597 921 l 628 957 l 631 960 l 633 963 l 663 993 l 681 1007 l 688 1003 q 696 994 694 997 l 701 988 l 707 982 q 717 963 713 968 l 722 956 l 683 610 l 675 603 m 129 974 l 133 978 q 150 1007 144 1003 l 158 1018 l 258 908 l 228 649 l 215 638 l 185 613 l 181 611 l 149 586 l 133 576 l 125 582 l 117 594 l 114 599 l 111 603 l 99 624 l 93 631 l 129 968 l 129 974 m 190 1046 l 203 1051 l 221 1056 l 608 1056 l 615 1054 q 631 1047 624 1054 l 647 1038 q 653 1033 651 1036 q 656 1028 654 1029 q 651 1021 654 1026 q 642 1007 649 1015 l 613 974 l 611 969 l 575 932 l 561 917 l 286 917 l 178 1036 l 190 1046 z "},"9":{"ha":764,"x_min":93,"x_max":722,"o":"m 590 44 l 582 36 l 576 31 l 571 26 l 564 24 l 558 24 l 149 24 l 128 25 l 111 33 l 100 42 l 96 46 l 197 151 l 499 151 l 594 50 l 590 44 m 642 104 q 611 69 638 96 q 606 73 610 71 q 592 86 601 75 l 563 117 l 558 119 l 525 154 l 511 171 l 544 472 l 554 482 q 579 506 567 493 l 582 510 l 585 513 l 608 532 q 617 537 613 535 q 624 540 622 539 l 635 535 l 651 525 l 654 521 l 660 519 l 678 504 l 685 499 l 644 119 l 642 104 m 590 543 l 568 522 l 565 518 l 540 499 l 529 488 l 218 488 l 207 496 q 185 518 192 508 l 179 521 l 176 525 q 158 540 165 532 q 151 550 151 547 q 149 557 150 553 q 158 568 153 565 l 185 590 l 188 594 l 217 615 l 228 625 l 539 625 q 549 615 546 621 l 568 594 l 572 592 l 575 589 q 592 568 588 576 q 600 557 597 564 q 590 543 594 547 m 675 603 l 660 589 l 657 586 l 638 572 l 626 568 q 611 579 617 574 l 590 597 l 586 600 l 583 606 l 561 629 q 553 638 557 635 q 550 642 550 640 l 585 906 l 597 921 l 628 957 l 631 960 l 633 963 l 663 993 l 681 1007 l 688 1003 q 696 994 694 997 l 701 988 l 707 982 q 717 963 713 968 l 722 956 l 683 610 l 675 603 m 129 974 l 133 978 q 150 1007 144 1003 l 158 1018 l 258 908 l 228 649 l 215 638 l 185 613 l 181 611 l 149 586 l 133 576 l 125 582 l 117 594 l 114 599 l 111 603 l 99 624 l 93 631 l 129 968 l 129 974 m 190 1046 l 203 1051 l 221 1056 l 608 1056 l 615 1054 q 631 1047 624 1054 l 647 1038 q 653 1033 651 1036 q 656 1028 654 1029 q 651 1021 654 1026 q 642 1007 649 1015 l 613 974 l 611 969 l 575 932 l 561 917 l 286 917 l 178 1036 l 190 1046 z "},"×":{"ha":0,"x_min":0,"x_max":0,"o":""}," ":{"ha":696,"x_min":0,"x_max":0,"o":""},"!":{"ha":764,"x_min":93,"x_max":722,"o":"m 590 44 l 582 36 l 576 31 l 571 26 l 564 24 l 558 24 l 149 24 l 128 25 l 111 33 l 100 42 l 96 46 l 197 151 l 499 151 l 594 50 l 590 44 m 590 543 l 568 522 l 565 518 l 540 499 l 529 488 l 218 488 l 207 496 q 185 518 192 508 l 179 521 l 176 525 q 158 540 165 532 q 151 550 151 547 q 149 557 150 553 q 158 568 153 565 l 185 590 l 188 594 l 217 615 l 228 625 l 539 625 q 549 615 546 621 l 568 594 l 572 592 l 575 589 q 592 568 588 576 q 600 557 597 564 q 590 543 594 547 m 675 603 l 660 589 l 657 586 l 638 572 l 626 568 q 611 579 617 574 l 590 597 l 586 600 l 583 606 l 561 629 q 553 638 557 635 q 550 642 550 640 l 585 906 l 597 921 l 628 957 l 631 960 l 633 963 l 663 993 l 681 1007 l 688 1003 q 696 994 694 997 l 701 988 l 707 982 q 717 963 713 968 l 722 956 l 683 610 l 675 603 m 129 974 l 133 978 q 150 1007 144 1003 l 158 1018 l 258 908 l 228 649 l 215 638 l 185 613 l 181 611 l 149 586 l 133 576 l 125 582 l 117 594 l 114 599 l 111 603 l 99 624 l 93 631 l 129 968 l 129 974 m 190 1046 l 203 1051 l 221 1056 l 608 1056 l 615 1054 q 631 1047 624 1054 l 647 1038 q 653 1033 651 1036 q 656 1028 654 1029 q 651 1021 654 1026 q 642 1007 649 1015 l 613 974 l 611 969 l 575 932 l 561 917 l 286 917 l 178 1036 l 190 1046 z "},"\"":{"ha":764,"x_min":93,"x_max":722,"o":"m 675 603 l 660 589 l 657 586 l 638 572 l 626 568 q 611 579 617 574 l 590 597 l 586 600 l 583 606 l 561 629 q 553 638 557 635 q 550 642 550 640 l 585 906 l 597 921 l 628 957 l 631 960 l 633 963 l 663 993 l 681 1007 l 688 1003 q 696 994 694 997 l 701 988 l 707 982 q 717 963 713 968 l 722 956 l 683 610 l 675 603 m 129 974 l 133 978 q 150 1007 144 1003 l 158 1018 l 258 908 l 228 649 l 215 638 l 185 613 l 181 611 l 149 586 l 133 576 l 125 582 l 117 594 l 114 599 l 111 603 l 99 624 l 93 631 l 129 968 l 129 974 z "},"'":{"ha":764,"x_min":93,"x_max":258,"o":"m 129 974 l 133 978 q 150 1007 144 1003 l 158 1018 l 258 908 l 228 649 l 215 638 l 185 613 l 181 611 l 149 586 l 133 576 l 125 582 l 117 594 l 114 599 l 111 603 l 99 624 l 93 631 l 129 968 l 129 974 z "},"(":{"ha":764,"x_min":42,"x_max":656,"o":"m 590 44 l 582 36 l 576 31 l 571 26 l 564 24 l 558 24 l 149 24 l 128 25 l 111 33 l 100 42 l 96 46 l 197 151 l 499 151 l 594 50 l 590 44 m 90 513 l 104 525 l 110 531 l 122 538 l 129 540 q 144 528 139 533 l 171 504 l 174 501 q 200 475 185 493 l 213 463 l 185 169 l 79 61 l 72 68 l 65 78 l 54 97 q 44 122 47 118 l 42 128 l 42 135 l 86 508 l 90 513 m 129 974 l 133 978 q 150 1007 144 1003 l 158 1018 l 258 908 l 228 649 l 215 638 l 185 613 l 181 611 l 149 586 l 133 576 l 125 582 l 117 594 l 114 599 l 111 603 l 99 624 l 93 631 l 129 968 l 129 974 m 190 1046 l 203 1051 l 221 1056 l 608 1056 l 615 1054 q 631 1047 624 1054 l 647 1038 q 653 1033 651 1036 q 656 1028 654 1029 q 651 1021 654 1026 q 642 1007 649 1015 l 613 974 l 611 969 l 575 932 l 561 917 l 286 917 l 178 1036 l 190 1046 z "},")":{"ha":764,"x_min":96,"x_max":722,"o":"m 590 44 l 582 36 l 576 31 l 571 26 l 564 24 l 558 24 l 149 24 l 128 25 l 111 33 l 100 42 l 96 46 l 197 151 l 499 151 l 594 50 l 590 44 m 642 104 q 611 69 638 96 q 606 73 610 71 q 592 86 601 75 l 563 117 l 558 119 l 525 154 l 511 171 l 544 472 l 554 482 q 579 506 567 493 l 582 510 l 585 513 l 608 532 q 617 537 613 535 q 624 540 622 539 l 635 535 l 651 525 l 654 521 l 660 519 l 678 504 l 685 499 l 644 119 l 642 104 m 675 603 l 660 589 l 657 586 l 638 572 l 626 568 q 611 579 617 574 l 590 597 l 586 600 l 583 606 l 561 629 q 553 638 557 635 q 550 642 550 640 l 585 906 l 597 921 l 628 957 l 631 960 l 633 963 l 663 993 l 681 1007 l 688 1003 q 696 994 694 997 l 701 988 l 707 982 q 717 963 713 968 l 722 956 l 683 610 l 675 603 m 190 1046 l 203 1051 l 221 1056 l 608 1056 l 615 1054 q 631 1047 624 1054 l 647 1038 q 653 1033 651 1036 q 656 1028 654 1029 q 651 1021 654 1026 q 642 1007 649 1015 l 613 974 l 611 969 l 575 932 l 561 917 l 286 917 l 178 1036 l 190 1046 z "},"+":{"ha":764,"x_min":42,"x_max":600,"o":"m 90 513 l 104 525 l 110 531 l 122 538 l 129 540 q 144 528 139 533 l 171 504 l 174 501 q 200 475 185 493 l 213 463 l 185 169 l 79 61 l 72 68 l 65 78 l 54 97 q 44 122 47 118 l 42 128 l 42 135 l 86 508 l 90 513 m 590 543 l 568 522 l 565 518 l 540 499 l 529 488 l 218 488 l 207 496 q 185 518 192 508 l 179 521 l 176 525 q 158 540 165 532 q 151 550 151 547 q 149 557 150 553 q 158 568 153 565 l 185 590 l 188 594 l 217 615 l 228 625 l 539 625 q 549 615 546 621 l 568 594 l 572 592 l 575 589 q 592 568 588 576 q 600 557 597 564 q 590 543 594 547 m 129 974 l 133 978 q 150 1007 144 1003 l 158 1018 l 258 908 l 228 649 l 215 638 l 185 613 l 181 611 l 149 586 l 133 576 l 125 582 l 117 594 l 114 599 l 111 603 l 99 624 l 93 631 l 129 968 l 129 974 z "},",":{"ha":90,"x_min":-53,"x_max":97,"o":"m -50 43 l -53 61 q -46 90 -53 78 q -31 115 -42 103 q -6 132 -21 126 l 24 138 q 53 131 38 138 q 86 107 68 125 l 93 88 l 97 65 l 97 57 q 90 25 97 39 q 79 -1 85 6 l 78 -6 l 63 -31 l 42 -62 q 24 -79 33 -71 q 3 -97 14 -87 q -35 -117 -8 -107 l -28 -106 l -11 -81 l -6 -64 q 1 -50 -1 -60 q 7 -29 4 -46 l 10 -11 l 8 -1 l 6 6 l -1 7 l -18 13 q -31 18 -22 13 l -42 26 l -50 43 z "},"-":{"ha":764,"x_min":149,"x_max":600,"o":"m 590 543 l 568 522 l 565 518 l 540 499 l 529 488 l 218 488 l 207 496 q 185 518 192 508 l 179 521 l 176 525 q 158 540 165 532 q 151 550 151 547 q 149 557 150 553 q 158 568 153 565 l 185 590 l 188 594 l 217 615 l 228 625 l 539 625 q 549 615 546 621 l 568 594 l 572 592 l 575 589 q 592 568 588 576 q 600 557 597 564 q 590 543 594 547 z "},".":{"ha":90,"x_min":-57,"x_max":86,"o":"m -53 117 l 86 117 l 75 -6 l -57 -6 l -53 117 z "},"/":{"ha":764,"x_min":42,"x_max":722,"o":"m 90 513 l 104 525 l 110 531 l 122 538 l 129 540 q 144 528 139 533 l 171 504 l 174 501 q 200 475 185 493 l 213 463 l 185 169 l 79 61 l 72 68 l 65 78 l 54 97 q 44 122 47 118 l 42 128 l 42 135 l 86 508 l 90 513 m 590 543 l 568 522 l 565 518 l 540 499 l 529 488 l 218 488 l 207 496 q 185 518 192 508 l 179 521 l 176 525 q 158 540 165 532 q 151 550 151 547 q 149 557 150 553 q 158 568 153 565 l 185 590 l 188 594 l 217 615 l 228 625 l 539 625 q 549 615 546 621 l 568 594 l 572 592 l 575 589 q 592 568 588 576 q 600 557 597 564 q 590 543 594 547 m 675 603 l 660 589 l 657 586 l 638 572 l 626 568 q 611 579 617 574 l 590 597 l 586 600 l 583 606 l 561 629 q 553 638 557 635 q 550 642 550 640 l 585 906 l 597 921 l 628 957 l 631 960 l 633 963 l 663 993 l 681 1007 l 688 1003 q 696 994 694 997 l 701 988 l 707 982 q 717 963 713 968 l 722 956 l 683 610 l 675 603 z "},":":{"ha":342,"x_min":82,"x_max":265,"o":"m 93 433 l 243 433 l 226 294 l 82 294 l 93 433 m 115 810 l 265 810 l 249 672 l 104 672 l 115 810 z "},";":{"ha":764,"x_min":42,"x_max":656,"o":"m 90 513 l 104 525 l 110 531 l 122 538 l 129 540 q 144 528 139 533 l 171 504 l 174 501 q 200 475 185 493 l 213 463 l 185 169 l 79 61 l 72 68 l 65 78 l 54 97 q 44 122 47 118 l 42 128 l 42 135 l 86 508 l 90 513 m 190 1046 l 203 1051 l 221 1056 l 608 1056 l 615 1054 q 631 1047 624 1054 l 647 1038 q 653 1033 651 1036 q 656 1028 654 1029 q 651 1021 654 1026 q 642 1007 649 1015 l 613 974 l 611 969 l 575 932 l 561 917 l 286 917 l 178 1036 l 190 1046 z "},"<":{"ha":764,"x_min":42,"x_max":600,"o":"m 590 44 l 582 36 l 576 31 l 571 26 l 564 24 l 558 24 l 149 24 l 128 25 l 111 33 l 100 42 l 96 46 l 197 151 l 499 151 l 594 50 l 590 44 m 90 513 l 104 525 l 110 531 l 122 538 l 129 540 q 144 528 139 533 l 171 504 l 174 501 q 200 475 185 493 l 213 463 l 185 169 l 79 61 l 72 68 l 65 78 l 54 97 q 44 122 47 118 l 42 128 l 42 135 l 86 508 l 90 513 m 590 543 l 568 522 l 565 518 l 540 499 l 529 488 l 218 488 l 207 496 q 185 518 192 508 l 179 521 l 176 525 q 158 540 165 532 q 151 550 151 547 q 149 557 150 553 q 158 568 153 565 l 185 590 l 188 594 l 217 615 l 228 625 l 539 625 q 549 615 546 621 l 568 594 l 572 592 l 575 589 q 592 568 588 576 q 600 557 597 564 q 590 543 594 547 z "},"=":{"ha":764,"x_min":96,"x_max":600,"o":"m 590 44 l 582 36 l 576 31 l 571 26 l 564 24 l 558 24 l 149 24 l 128 25 l 111 33 l 100 42 l 96 46 l 197 151 l 499 151 l 594 50 l 590 44 m 590 543 l 568 522 l 565 518 l 540 499 l 529 488 l 218 488 l 207 496 q 185 518 192 508 l 179 521 l 176 525 q 158 540 165 532 q 151 550 151 547 q 149 557 150 553 q 158 568 153 565 l 185 590 l 188 594 l 217 615 l 228 625 l 539 625 q 549 615 546 621 l 568 594 l 572 592 l 575 589 q 592 568 588 576 q 600 557 597 564 q 590 543 594 547 z "},">":{"ha":764,"x_min":96,"x_max":685,"o":"m 590 44 l 582 36 l 576 31 l 571 26 l 564 24 l 558 24 l 149 24 l 128 25 l 111 33 l 100 42 l 96 46 l 197 151 l 499 151 l 594 50 l 590 44 m 642 104 q 611 69 638 96 q 606 73 610 71 q 592 86 601 75 l 563 117 l 558 119 l 525 154 l 511 171 l 544 472 l 554 482 q 579 506 567 493 l 582 510 l 585 513 l 608 532 q 617 537 613 535 q 624 540 622 539 l 635 535 l 651 525 l 654 521 l 660 519 l 678 504 l 685 499 l 644 119 l 642 104 m 590 543 l 568 522 l 565 518 l 540 499 l 529 488 l 218 488 l 207 496 q 185 518 192 508 l 179 521 l 176 525 q 158 540 165 532 q 151 550 151 547 q 149 557 150 553 q 158 568 153 565 l 185 590 l 188 594 l 217 615 l 228 625 l 539 625 q 549 615 546 621 l 568 594 l 572 592 l 575 589 q 592 568 588 576 q 600 557 597 564 q 590 543 594 547 z "},"?":{"ha":764,"x_min":42,"x_max":722,"o":"m 90 513 l 104 525 l 110 531 l 122 538 l 129 540 q 144 528 139 533 l 171 504 l 174 501 q 200 475 185 493 l 213 463 l 185 169 l 79 61 l 72 68 l 65 78 l 54 97 q 44 122 47 118 l 42 128 l 42 135 l 86 508 l 90 513 m 590 543 l 568 522 l 565 518 l 540 499 l 529 488 l 218 488 l 207 496 q 185 518 192 508 l 179 521 l 176 525 q 158 540 165 532 q 151 550 151 547 q 149 557 150 553 q 158 568 153 565 l 185 590 l 188 594 l 217 615 l 228 625 l 539 625 q 549 615 546 621 l 568 594 l 572 592 l 575 589 q 592 568 588 576 q 600 557 597 564 q 590 543 594 547 m 675 603 l 660 589 l 657 586 l 638 572 l 626 568 q 611 579 617 574 l 590 597 l 586 600 l 583 606 l 561 629 q 553 638 557 635 q 550 642 550 640 l 585 906 l 597 921 l 628 957 l 631 960 l 633 963 l 663 993 l 681 1007 l 688 1003 q 696 994 694 997 l 701 988 l 707 982 q 717 963 713 968 l 722 956 l 683 610 l 675 603 m 190 1046 l 203 1051 l 221 1056 l 608 1056 l 615 1054 q 631 1047 624 1054 l 647 1038 q 653 1033 651 1036 q 656 1028 654 1029 q 651 1021 654 1026 q 642 1007 649 1015 l 613 974 l 611 969 l 575 932 l 561 917 l 286 917 l 178 1036 l 190 1046 z "},"A":{"ha":764,"x_min":42,"x_max":722,"o":"m 90 513 l 104 525 l 110 531 l 122 538 l 129 540 q 144 528 139 533 l 171 504 l 174 501 q 200 475 185 493 l 213 463 l 185 169 l 79 61 l 72 68 l 65 78 l 54 97 q 44 122 47 118 l 42 128 l 42 135 l 86 508 l 90 513 m 642 104 q 611 69 638 96 q 606 73 610 71 q 592 86 601 75 l 563 117 l 558 119 l 525 154 l 511 171 l 544 472 l 554 482 q 579 506 567 493 l 582 510 l 585 513 l 608 532 q 617 537 613 535 q 624 540 622 539 l 635 535 l 651 525 l 654 521 l 660 519 l 678 504 l 685 499 l 644 119 l 642 104 m 590 543 l 568 522 l 565 518 l 540 499 l 529 488 l 218 488 l 207 496 q 185 518 192 508 l 179 521 l 176 525 q 158 540 165 532 q 151 550 151 547 q 149 557 150 553 q 158 568 153 565 l 185 590 l 188 594 l 217 615 l 228 625 l 539 625 q 549 615 546 621 l 568 594 l 572 592 l 575 589 q 592 568 588 576 q 600 557 597 564 q 590 543 594 547 m 675 603 l 660 589 l 657 586 l 638 572 l 626 568 q 611 579 617 574 l 590 597 l 586 600 l 583 606 l 561 629 q 553 638 557 635 q 550 642 550 640 l 585 906 l 597 921 l 628 957 l 631 960 l 633 963 l 663 993 l 681 1007 l 688 1003 q 696 994 694 997 l 701 988 l 707 982 q 717 963 713 968 l 722 956 l 683 610 l 675 603 m 129 974 l 133 978 q 150 1007 144 1003 l 158 1018 l 258 908 l 228 649 l 215 638 l 185 613 l 181 611 l 149 586 l 133 576 l 125 582 l 117 594 l 114 599 l 111 603 l 99 624 l 93 631 l 129 968 l 129 974 m 190 1046 l 203 1051 l 221 1056 l 608 1056 l 615 1054 q 631 1047 624 1054 l 647 1038 q 653 1033 651 1036 q 656 1028 654 1029 q 651 1021 654 1026 q 642 1007 649 1015 l 613 974 l 611 969 l 575 932 l 561 917 l 286 917 l 178 1036 l 190 1046 z "},"B":{"ha":764,"x_min":42,"x_max":685,"o":"m 590 44 l 582 36 l 576 31 l 571 26 l 564 24 l 558 24 l 149 24 l 128 25 l 111 33 l 100 42 l 96 46 l 197 151 l 499 151 l 594 50 l 590 44 m 90 513 l 104 525 l 110 531 l 122 538 l 129 540 q 144 528 139 533 l 171 504 l 174 501 q 200 475 185 493 l 213 463 l 185 169 l 79 61 l 72 68 l 65 78 l 54 97 q 44 122 47 118 l 42 128 l 42 135 l 86 508 l 90 513 m 642 104 q 611 69 638 96 q 606 73 610 71 q 592 86 601 75 l 563 117 l 558 119 l 525 154 l 511 171 l 544 472 l 554 482 q 579 506 567 493 l 582 510 l 585 513 l 608 532 q 617 537 613 535 q 624 540 622 539 l 635 535 l 651 525 l 654 521 l 660 519 l 678 504 l 685 499 l 644 119 l 642 104 m 590 543 l 568 522 l 565 518 l 540 499 l 529 488 l 218 488 l 207 496 q 185 518 192 508 l 179 521 l 176 525 q 158 540 165 532 q 151 550 151 547 q 149 557 150 553 q 158 568 153 565 l 185 590 l 188 594 l 217 615 l 228 625 l 539 625 q 549 615 546 621 l 568 594 l 572 592 l 575 589 q 592 568 588 576 q 600 557 597 564 q 590 543 594 547 m 129 974 l 133 978 q 150 1007 144 1003 l 158 1018 l 258 908 l 228 649 l 215 638 l 185 613 l 181 611 l 149 586 l 133 576 l 125 582 l 117 594 l 114 599 l 111 603 l 99 624 l 93 631 l 129 968 l 129 974 z "},"C":{"ha":764,"x_min":42,"x_max":600,"o":"m 590 44 l 582 36 l 576 31 l 571 26 l 564 24 l 558 24 l 149 24 l 128 25 l 111 33 l 100 42 l 96 46 l 197 151 l 499 151 l 594 50 l 590 44 m 90 513 l 104 525 l 110 531 l 122 538 l 129 540 q 144 528 139 533 l 171 504 l 174 501 q 200 475 185 493 l 213 463 l 185 169 l 79 61 l 72 68 l 65 78 l 54 97 q 44 122 47 118 l 42 128 l 42 135 l 86 508 l 90 513 m 590 543 l 568 522 l 565 518 l 540 499 l 529 488 l 218 488 l 207 496 q 185 518 192 508 l 179 521 l 176 525 q 158 540 165 532 q 151 550 151 547 q 149 557 150 553 q 158 568 153 565 l 185 590 l 188 594 l 217 615 l 228 625 l 539 625 q 549 615 546 621 l 568 594 l 572 592 l 575 589 q 592 568 588 576 q 600 557 597 564 q 590 543 594 547 z "},"D":{"ha":764,"x_min":42,"x_max":722,"o":"m 590 44 l 582 36 l 576 31 l 571 26 l 564 24 l 558 24 l 149 24 l 128 25 l 111 33 l 100 42 l 96 46 l 197 151 l 499 151 l 594 50 l 590 44 m 90 513 l 104 525 l 110 531 l 122 538 l 129 540 q 144 528 139 533 l 171 504 l 174 501 q 200 475 185 493 l 213 463 l 185 169 l 79 61 l 72 68 l 65 78 l 54 97 q 44 122 47 118 l 42 128 l 42 135 l 86 508 l 90 513 m 642 104 q 611 69 638 96 q 606 73 610 71 q 592 86 601 75 l 563 117 l 558 119 l 525 154 l 511 171 l 544 472 l 554 482 q 579 506 567 493 l 582 510 l 585 513 l 608 532 q 617 537 613 535 q 624 540 622 539 l 635 535 l 651 525 l 654 521 l 660 519 l 678 504 l 685 499 l 644 119 l 642 104 m 590 543 l 568 522 l 565 518 l 540 499 l 529 488 l 218 488 l 207 496 q 185 518 192 508 l 179 521 l 176 525 q 158 540 165 532 q 151 550 151 547 q 149 557 150 553 q 158 568 153 565 l 185 590 l 188 594 l 217 615 l 228 625 l 539 625 q 549 615 546 621 l 568 594 l 572 592 l 575 589 q 592 568 588 576 q 600 557 597 564 q 590 543 594 547 m 675 603 l 660 589 l 657 586 l 638 572 l 626 568 q 611 579 617 574 l 590 597 l 586 600 l 583 606 l 561 629 q 553 638 557 635 q 550 642 550 640 l 585 906 l 597 921 l 628 957 l 631 960 l 633 963 l 663 993 l 681 1007 l 688 1003 q 696 994 694 997 l 701 988 l 707 982 q 717 963 713 968 l 722 956 l 683 610 l 675 603 z "},"E":{"ha":764,"x_min":42,"x_max":656,"o":"m 590 44 l 582 36 l 576 31 l 571 26 l 564 24 l 558 24 l 149 24 l 128 25 l 111 33 l 100 42 l 96 46 l 197 151 l 499 151 l 594 50 l 590 44 m 90 513 l 104 525 l 110 531 l 122 538 l 129 540 q 144 528 139 533 l 171 504 l 174 501 q 200 475 185 493 l 213 463 l 185 169 l 79 61 l 72 68 l 65 78 l 54 97 q 44 122 47 118 l 42 128 l 42 135 l 86 508 l 90 513 m 590 543 l 568 522 l 565 518 l 540 499 l 529 488 l 218 488 l 207 496 q 185 518 192 508 l 179 521 l 176 525 q 158 540 165 532 q 151 550 151 547 q 149 557 150 553 q 158 568 153 565 l 185 590 l 188 594 l 217 615 l 228 625 l 539 625 q 549 615 546 621 l 568 594 l 572 592 l 575 589 q 592 568 588 576 q 600 557 597 564 q 590 543 594 547 m 129 974 l 133 978 q 150 1007 144 1003 l 158 1018 l 258 908 l 228 649 l 215 638 l 185 613 l 181 611 l 149 586 l 133 576 l 125 582 l 117 594 l 114 599 l 111 603 l 99 624 l 93 631 l 129 968 l 129 974 m 190 1046 l 203 1051 l 221 1056 l 608 1056 l 615 1054 q 631 1047 624 1054 l 647 1038 q 653 1033 651 1036 q 656 1028 654 1029 q 651 1021 654 1026 q 642 1007 649 1015 l 613 974 l 611 969 l 575 932 l 561 917 l 286 917 l 178 1036 l 190 1046 z "},"F":{"ha":764,"x_min":42,"x_max":656,"o":"m 90 513 l 104 525 l 110 531 l 122 538 l 129 540 q 144 528 139 533 l 171 504 l 174 501 q 200 475 185 493 l 213 463 l 185 169 l 79 61 l 72 68 l 65 78 l 54 97 q 44 122 47 118 l 42 128 l 42 135 l 86 508 l 90 513 m 590 543 l 568 522 l 565 518 l 540 499 l 529 488 l 218 488 l 207 496 q 185 518 192 508 l 179 521 l 176 525 q 158 540 165 532 q 151 550 151 547 q 149 557 150 553 q 158 568 153 565 l 185 590 l 188 594 l 217 615 l 228 625 l 539 625 q 549 615 546 621 l 568 594 l 572 592 l 575 589 q 592 568 588 576 q 600 557 597 564 q 590 543 594 547 m 129 974 l 133 978 q 150 1007 144 1003 l 158 1018 l 258 908 l 228 649 l 215 638 l 185 613 l 181 611 l 149 586 l 133 576 l 125 582 l 117 594 l 114 599 l 111 603 l 99 624 l 93 631 l 129 968 l 129 974 m 190 1046 l 203 1051 l 221 1056 l 608 1056 l 615 1054 q 631 1047 624 1054 l 647 1038 q 653 1033 651 1036 q 656 1028 654 1029 q 651 1021 654 1026 q 642 1007 649 1015 l 613 974 l 611 969 l 575 932 l 561 917 l 286 917 l 178 1036 l 190 1046 z "},"G":{"ha":764,"x_min":42,"x_max":685,"o":"m 590 44 l 582 36 l 576 31 l 571 26 l 564 24 l 558 24 l 149 24 l 128 25 l 111 33 l 100 42 l 96 46 l 197 151 l 499 151 l 594 50 l 590 44 m 90 513 l 104 525 l 110 531 l 122 538 l 129 540 q 144 528 139 533 l 171 504 l 174 501 q 200 475 185 493 l 213 463 l 185 169 l 79 61 l 72 68 l 65 78 l 54 97 q 44 122 47 118 l 42 128 l 42 135 l 86 508 l 90 513 m 642 104 q 611 69 638 96 q 606 73 610 71 q 592 86 601 75 l 563 117 l 558 119 l 525 154 l 511 171 l 544 472 l 554 482 q 579 506 567 493 l 582 510 l 585 513 l 608 532 q 617 537 613 535 q 624 540 622 539 l 635 535 l 651 525 l 654 521 l 660 519 l 678 504 l 685 499 l 644 119 l 642 104 m 129 974 l 133 978 q 150 1007 144 1003 l 158 1018 l 258 908 l 228 649 l 215 638 l 185 613 l 181 611 l 149 586 l 133 576 l 125 582 l 117 594 l 114 599 l 111 603 l 99 624 l 93 631 l 129 968 l 129 974 m 190 1046 l 203 1051 l 221 1056 l 608 1056 l 615 1054 q 631 1047 624 1054 l 647 1038 q 653 1033 651 1036 q 656 1028 654 1029 q 651 1021 654 1026 q 642 1007 649 1015 l 613 974 l 611 969 l 575 932 l 561 917 l 286 917 l 178 1036 l 190 1046 z "},"H":{"ha":764,"x_min":42,"x_max":685,"o":"m 90 513 l 104 525 l 110 531 l 122 538 l 129 540 q 144 528 139 533 l 171 504 l 174 501 q 200 475 185 493 l 213 463 l 185 169 l 79 61 l 72 68 l 65 78 l 54 97 q 44 122 47 118 l 42 128 l 42 135 l 86 508 l 90 513 m 642 104 q 611 69 638 96 q 606 73 610 71 q 592 86 601 75 l 563 117 l 558 119 l 525 154 l 511 171 l 544 472 l 554 482 q 579 506 567 493 l 582 510 l 585 513 l 608 532 q 617 537 613 535 q 624 540 622 539 l 635 535 l 651 525 l 654 521 l 660 519 l 678 504 l 685 499 l 644 119 l 642 104 m 590 543 l 568 522 l 565 518 l 540 499 l 529 488 l 218 488 l 207 496 q 185 518 192 508 l 179 521 l 176 525 q 158 540 165 532 q 151 550 151 547 q 149 557 150 553 q 158 568 153 565 l 185 590 l 188 594 l 217 615 l 228 625 l 539 625 q 549 615 546 621 l 568 594 l 572 592 l 575 589 q 592 568 588 576 q 600 557 597 564 q 590 543 594 547 m 129 974 l 133 978 q 150 1007 144 1003 l 158 1018 l 258 908 l 228 649 l 215 638 l 185 613 l 181 611 l 149 586 l 133 576 l 125 582 l 117 594 l 114 599 l 111 603 l 99 624 l 93 631 l 129 968 l 129 974 z "},"I":{"ha":764,"x_min":511,"x_max":722,"o":"m 642 104 q 611 69 638 96 q 606 73 610 71 q 592 86 601 75 l 563 117 l 558 119 l 525 154 l 511 171 l 544 472 l 554 482 q 579 506 567 493 l 582 510 l 585 513 l 608 532 q 617 537 613 535 q 624 540 622 539 l 635 535 l 651 525 l 654 521 l 660 519 l 678 504 l 685 499 l 644 119 l 642 104 m 675 603 l 660 589 l 657 586 l 638 572 l 626 568 q 611 579 617 574 l 590 597 l 586 600 l 583 606 l 561 629 q 553 638 557 635 q 550 642 550 640 l 585 906 l 597 921 l 628 957 l 631 960 l 633 963 l 663 993 l 681 1007 l 688 1003 q 696 994 694 997 l 701 988 l 707 982 q 717 963 713 968 l 722 956 l 683 610 l 675 603 z "},"J":{"ha":764,"x_min":96,"x_max":722,"o":"m 590 44 l 582 36 l 576 31 l 571 26 l 564 24 l 558 24 l 149 24 l 128 25 l 111 33 l 100 42 l 96 46 l 197 151 l 499 151 l 594 50 l 590 44 m 642 104 q 611 69 638 96 q 606 73 610 71 q 592 86 601 75 l 563 117 l 558 119 l 525 154 l 511 171 l 544 472 l 554 482 q 579 506 567 493 l 582 510 l 585 513 l 608 532 q 617 537 613 535 q 624 540 622 539 l 635 535 l 651 525 l 654 521 l 660 519 l 678 504 l 685 499 l 644 119 l 642 104 m 675 603 l 660 589 l 657 586 l 638 572 l 626 568 q 611 579 617 574 l 590 597 l 586 600 l 583 606 l 561 629 q 553 638 557 635 q 550 642 550 640 l 585 906 l 597 921 l 628 957 l 631 960 l 633 963 l 663 993 l 681 1007 l 688 1003 q 696 994 694 997 l 701 988 l 707 982 q 717 963 713 968 l 722 956 l 683 610 l 675 603 z "},"K":{"ha":764,"x_min":42,"x_max":722,"o":"m 90 513 l 104 525 l 110 531 l 122 538 l 129 540 q 144 528 139 533 l 171 504 l 174 501 q 200 475 185 493 l 213 463 l 185 169 l 79 61 l 72 68 l 65 78 l 54 97 q 44 122 47 118 l 42 128 l 42 135 l 86 508 l 90 513 m 642 104 q 611 69 638 96 q 606 73 610 71 q 592 86 601 75 l 563 117 l 558 119 l 525 154 l 511 171 l 544 472 l 554 482 q 579 506 567 493 l 582 510 l 585 513 l 608 532 q 617 537 613 535 q 624 540 622 539 l 635 535 l 651 525 l 654 521 l 660 519 l 678 504 l 685 499 l 644 119 l 642 104 m 590 543 l 568 522 l 565 518 l 540 499 l 529 488 l 218 488 l 207 496 q 185 518 192 508 l 179 521 l 176 525 q 158 540 165 532 q 151 550 151 547 q 149 557 150 553 q 158 568 153 565 l 185 590 l 188 594 l 217 615 l 228 625 l 539 625 q 549 615 546 621 l 568 594 l 572 592 l 575 589 q 592 568 588 576 q 600 557 597 564 q 590 543 594 547 m 675 603 l 660 589 l 657 586 l 638 572 l 626 568 q 611 579 617 574 l 590 597 l 586 600 l 583 606 l 561 629 q 553 638 557 635 q 550 642 550 640 l 585 906 l 597 921 l 628 957 l 631 960 l 633 963 l 663 993 l 681 1007 l 688 1003 q 696 994 694 997 l 701 988 l 707 982 q 717 963 713 968 l 722 956 l 683 610 l 675 603 m 129 974 l 133 978 q 150 1007 144 1003 l 158 1018 l 258 908 l 228 649 l 215 638 l 185 613 l 181 611 l 149 586 l 133 576 l 125 582 l 117 594 l 114 599 l 111 603 l 99 624 l 93 631 l 129 968 l 129 974 z "},"L":{"ha":764,"x_min":42,"x_max":594,"o":"m 590 44 l 582 36 l 576 31 l 571 26 l 564 24 l 558 24 l 149 24 l 128 25 l 111 33 l 100 42 l 96 46 l 197 151 l 499 151 l 594 50 l 590 44 m 90 513 l 104 525 l 110 531 l 122 538 l 129 540 q 144 528 139 533 l 171 504 l 174 501 q 200 475 185 493 l 213 463 l 185 169 l 79 61 l 72 68 l 65 78 l 54 97 q 44 122 47 118 l 42 128 l 42 135 l 86 508 l 90 513 m 129 974 l 133 978 q 150 1007 144 1003 l 158 1018 l 258 908 l 228 649 l 215 638 l 185 613 l 181 611 l 149 586 l 133 576 l 125 582 l 117 594 l 114 599 l 111 603 l 99 624 l 93 631 l 129 968 l 129 974 z "},"M":{"ha":764,"x_min":42,"x_max":722,"o":"m 90 513 l 104 525 l 110 531 l 122 538 l 129 540 q 144 528 139 533 l 171 504 l 174 501 q 200 475 185 493 l 213 463 l 185 169 l 79 61 l 72 68 l 65 78 l 54 97 q 44 122 47 118 l 42 128 l 42 135 l 86 508 l 90 513 m 675 603 l 660 589 l 657 586 l 638 572 l 626 568 q 611 579 617 574 l 590 597 l 586 600 l 583 606 l 561 629 q 553 638 557 635 q 550 642 550 640 l 585 906 l 597 921 l 628 957 l 631 960 l 633 963 l 663 993 l 681 1007 l 688 1003 q 696 994 694 997 l 701 988 l 707 982 q 717 963 713 968 l 722 956 l 683 610 l 675 603 m 129 974 l 133 978 q 150 1007 144 1003 l 158 1018 l 258 908 l 228 649 l 215 638 l 185 613 l 181 611 l 149 586 l 133 576 l 125 582 l 117 594 l 114 599 l 111 603 l 99 624 l 93 631 l 129 968 l 129 974 m 190 1046 l 203 1051 l 221 1056 l 608 1056 l 615 1054 q 631 1047 624 1054 l 647 1038 q 653 1033 651 1036 q 656 1028 654 1029 q 651 1021 654 1026 q 642 1007 649 1015 l 613 974 l 611 969 l 575 932 l 561 917 l 286 917 l 178 1036 l 190 1046 z "},"N":{"ha":764,"x_min":42,"x_max":685,"o":"m 90 513 l 104 525 l 110 531 l 122 538 l 129 540 q 144 528 139 533 l 171 504 l 174 501 q 200 475 185 493 l 213 463 l 185 169 l 79 61 l 72 68 l 65 78 l 54 97 q 44 122 47 118 l 42 128 l 42 135 l 86 508 l 90 513 m 642 104 q 611 69 638 96 q 606 73 610 71 q 592 86 601 75 l 563 117 l 558 119 l 525 154 l 511 171 l 544 472 l 554 482 q 579 506 567 493 l 582 510 l 585 513 l 608 532 q 617 537 613 535 q 624 540 622 539 l 635 535 l 651 525 l 654 521 l 660 519 l 678 504 l 685 499 l 644 119 l 642 104 m 590 543 l 568 522 l 565 518 l 540 499 l 529 488 l 218 488 l 207 496 q 185 518 192 508 l 179 521 l 176 525 q 158 540 165 532 q 151 550 151 547 q 149 557 150 553 q 158 568 153 565 l 185 590 l 188 594 l 217 615 l 228 625 l 539 625 q 549 615 546 621 l 568 594 l 572 592 l 575 589 q 592 568 588 576 q 600 557 597 564 q 590 543 594 547 z "},"O":{"ha":764,"x_min":42,"x_max":685,"o":"m 590 44 l 582 36 l 576 31 l 571 26 l 564 24 l 558 24 l 149 24 l 128 25 l 111 33 l 100 42 l 96 46 l 197 151 l 499 151 l 594 50 l 590 44 m 90 513 l 104 525 l 110 531 l 122 538 l 129 540 q 144 528 139 533 l 171 504 l 174 501 q 200 475 185 493 l 213 463 l 185 169 l 79 61 l 72 68 l 65 78 l 54 97 q 44 122 47 118 l 42 128 l 42 135 l 86 508 l 90 513 m 642 104 q 611 69 638 96 q 606 73 610 71 q 592 86 601 75 l 563 117 l 558 119 l 525 154 l 511 171 l 544 472 l 554 482 q 579 506 567 493 l 582 510 l 585 513 l 608 532 q 617 537 613 535 q 624 540 622 539 l 635 535 l 651 525 l 654 521 l 660 519 l 678 504 l 685 499 l 644 119 l 642 104 m 590 543 l 568 522 l 565 518 l 540 499 l 529 488 l 218 488 l 207 496 q 185 518 192 508 l 179 521 l 176 525 q 158 540 165 532 q 151 550 151 547 q 149 557 150 553 q 158 568 153 565 l 185 590 l 188 594 l 217 615 l 228 625 l 539 625 q 549 615 546 621 l 568 594 l 572 592 l 575 589 q 592 568 588 576 q 600 557 597 564 q 590 543 594 547 z "},"P":{"ha":764,"x_min":42,"x_max":722,"o":"m 90 513 l 104 525 l 110 531 l 122 538 l 129 540 q 144 528 139 533 l 171 504 l 174 501 q 200 475 185 493 l 213 463 l 185 169 l 79 61 l 72 68 l 65 78 l 54 97 q 44 122 47 118 l 42 128 l 42 135 l 86 508 l 90 513 m 590 543 l 568 522 l 565 518 l 540 499 l 529 488 l 218 488 l 207 496 q 185 518 192 508 l 179 521 l 176 525 q 158 540 165 532 q 151 550 151 547 q 149 557 150 553 q 158 568 153 565 l 185 590 l 188 594 l 217 615 l 228 625 l 539 625 q 549 615 546 621 l 568 594 l 572 592 l 575 589 q 592 568 588 576 q 600 557 597 564 q 590 543 594 547 m 675 603 l 660 589 l 657 586 l 638 572 l 626 568 q 611 579 617 574 l 590 597 l 586 600 l 583 606 l 561 629 q 553 638 557 635 q 550 642 550 640 l 585 906 l 597 921 l 628 957 l 631 960 l 633 963 l 663 993 l 681 1007 l 688 1003 q 696 994 694 997 l 701 988 l 707 982 q 717 963 713 968 l 722 956 l 683 610 l 675 603 m 129 974 l 133 978 q 150 1007 144 1003 l 158 1018 l 258 908 l 228 649 l 215 638 l 185 613 l 181 611 l 149 586 l 133 576 l 125 582 l 117 594 l 114 599 l 111 603 l 99 624 l 93 631 l 129 968 l 129 974 m 190 1046 l 203 1051 l 221 1056 l 608 1056 l 615 1054 q 631 1047 624 1054 l 647 1038 q 653 1033 651 1036 q 656 1028 654 1029 q 651 1021 654 1026 q 642 1007 649 1015 l 613 974 l 611 969 l 575 932 l 561 917 l 286 917 l 178 1036 l 190 1046 z "},"Q":{"ha":764,"x_min":93,"x_max":722,"o":"m 642 104 q 611 69 638 96 q 606 73 610 71 q 592 86 601 75 l 563 117 l 558 119 l 525 154 l 511 171 l 544 472 l 554 482 q 579 506 567 493 l 582 510 l 585 513 l 608 532 q 617 537 613 535 q 624 540 622 539 l 635 535 l 651 525 l 654 521 l 660 519 l 678 504 l 685 499 l 644 119 l 642 104 m 590 543 l 568 522 l 565 518 l 540 499 l 529 488 l 218 488 l 207 496 q 185 518 192 508 l 179 521 l 176 525 q 158 540 165 532 q 151 550 151 547 q 149 557 150 553 q 158 568 153 565 l 185 590 l 188 594 l 217 615 l 228 625 l 539 625 q 549 615 546 621 l 568 594 l 572 592 l 575 589 q 592 568 588 576 q 600 557 597 564 q 590 543 594 547 m 675 603 l 660 589 l 657 586 l 638 572 l 626 568 q 611 579 617 574 l 590 597 l 586 600 l 583 606 l 561 629 q 553 638 557 635 q 550 642 550 640 l 585 906 l 597 921 l 628 957 l 631 960 l 633 963 l 663 993 l 681 1007 l 688 1003 q 696 994 694 997 l 701 988 l 707 982 q 717 963 713 968 l 722 956 l 683 610 l 675 603 m 129 974 l 133 978 q 150 1007 144 1003 l 158 1018 l 258 908 l 228 649 l 215 638 l 185 613 l 181 611 l 149 586 l 133 576 l 125 582 l 117 594 l 114 599 l 111 603 l 99 624 l 93 631 l 129 968 l 129 974 m 190 1046 l 203 1051 l 221 1056 l 608 1056 l 615 1054 q 631 1047 624 1054 l 647 1038 q 653 1033 651 1036 q 656 1028 654 1029 q 651 1021 654 1026 q 642 1007 649 1015 l 613 974 l 611 969 l 575 932 l 561 917 l 286 917 l 178 1036 l 190 1046 z "},"R":{"ha":764,"x_min":42,"x_max":600,"o":"m 90 513 l 104 525 l 110 531 l 122 538 l 129 540 q 144 528 139 533 l 171 504 l 174 501 q 200 475 185 493 l 213 463 l 185 169 l 79 61 l 72 68 l 65 78 l 54 97 q 44 122 47 118 l 42 128 l 42 135 l 86 508 l 90 513 m 590 543 l 568 522 l 565 518 l 540 499 l 529 488 l 218 488 l 207 496 q 185 518 192 508 l 179 521 l 176 525 q 158 540 165 532 q 151 550 151 547 q 149 557 150 553 q 158 568 153 565 l 185 590 l 188 594 l 217 615 l 228 625 l 539 625 q 549 615 546 621 l 568 594 l 572 592 l 575 589 q 592 568 588 576 q 600 557 597 564 q 590 543 594 547 z "},"S":{"ha":764,"x_min":93,"x_max":685,"o":"m 590 44 l 582 36 l 576 31 l 571 26 l 564 24 l 558 24 l 149 24 l 128 25 l 111 33 l 100 42 l 96 46 l 197 151 l 499 151 l 594 50 l 590 44 m 642 104 q 611 69 638 96 q 606 73 610 71 q 592 86 601 75 l 563 117 l 558 119 l 525 154 l 511 171 l 544 472 l 554 482 q 579 506 567 493 l 582 510 l 585 513 l 608 532 q 617 537 613 535 q 624 540 622 539 l 635 535 l 651 525 l 654 521 l 660 519 l 678 504 l 685 499 l 644 119 l 642 104 m 590 543 l 568 522 l 565 518 l 540 499 l 529 488 l 218 488 l 207 496 q 185 518 192 508 l 179 521 l 176 525 q 158 540 165 532 q 151 550 151 547 q 149 557 150 553 q 158 568 153 565 l 185 590 l 188 594 l 217 615 l 228 625 l 539 625 q 549 615 546 621 l 568 594 l 572 592 l 575 589 q 592 568 588 576 q 600 557 597 564 q 590 543 594 547 m 129 974 l 133 978 q 150 1007 144 1003 l 158 1018 l 258 908 l 228 649 l 215 638 l 185 613 l 181 611 l 149 586 l 133 576 l 125 582 l 117 594 l 114 599 l 111 603 l 99 624 l 93 631 l 129 968 l 129 974 m 190 1046 l 203 1051 l 221 1056 l 608 1056 l 615 1054 q 631 1047 624 1054 l 647 1038 q 653 1033 651 1036 q 656 1028 654 1029 q 651 1021 654 1026 q 642 1007 649 1015 l 613 974 l 611 969 l 575 932 l 561 917 l 286 917 l 178 1036 l 190 1046 z "},"T":{"ha":764,"x_min":42,"x_max":600,"o":"m 590 44 l 582 36 l 576 31 l 571 26 l 564 24 l 558 24 l 149 24 l 128 25 l 111 33 l 100 42 l 96 46 l 197 151 l 499 151 l 594 50 l 590 44 m 90 513 l 104 525 l 110 531 l 122 538 l 129 540 q 144 528 139 533 l 171 504 l 174 501 q 200 475 185 493 l 213 463 l 185 169 l 79 61 l 72 68 l 65 78 l 54 97 q 44 122 47 118 l 42 128 l 42 135 l 86 508 l 90 513 m 590 543 l 568 522 l 565 518 l 540 499 l 529 488 l 218 488 l 207 496 q 185 518 192 508 l 179 521 l 176 525 q 158 540 165 532 q 151 550 151 547 q 149 557 150 553 q 158 568 153 565 l 185 590 l 188 594 l 217 615 l 228 625 l 539 625 q 549 615 546 621 l 568 594 l 572 592 l 575 589 q 592 568 588 576 q 600 557 597 564 q 590 543 594 547 m 129 974 l 133 978 q 150 1007 144 1003 l 158 1018 l 258 908 l 228 649 l 215 638 l 185 613 l 181 611 l 149 586 l 133 576 l 125 582 l 117 594 l 114 599 l 111 603 l 99 624 l 93 631 l 129 968 l 129 974 z "},"U":{"ha":764,"x_min":42,"x_max":722,"o":"m 590 44 l 582 36 l 576 31 l 571 26 l 564 24 l 558 24 l 149 24 l 128 25 l 111 33 l 100 42 l 96 46 l 197 151 l 499 151 l 594 50 l 590 44 m 90 513 l 104 525 l 110 531 l 122 538 l 129 540 q 144 528 139 533 l 171 504 l 174 501 q 200 475 185 493 l 213 463 l 185 169 l 79 61 l 72 68 l 65 78 l 54 97 q 44 122 47 118 l 42 128 l 42 135 l 86 508 l 90 513 m 642 104 q 611 69 638 96 q 606 73 610 71 q 592 86 601 75 l 563 117 l 558 119 l 525 154 l 511 171 l 544 472 l 554 482 q 579 506 567 493 l 582 510 l 585 513 l 608 532 q 617 537 613 535 q 624 540 622 539 l 635 535 l 651 525 l 654 521 l 660 519 l 678 504 l 685 499 l 644 119 l 642 104 m 675 603 l 660 589 l 657 586 l 638 572 l 626 568 q 611 579 617 574 l 590 597 l 586 600 l 583 606 l 561 629 q 553 638 557 635 q 550 642 550 640 l 585 906 l 597 921 l 628 957 l 631 960 l 633 963 l 663 993 l 681 1007 l 688 1003 q 696 994 694 997 l 701 988 l 707 982 q 717 963 713 968 l 722 956 l 683 610 l 675 603 m 129 974 l 133 978 q 150 1007 144 1003 l 158 1018 l 258 908 l 228 649 l 215 638 l 185 613 l 181 611 l 149 586 l 133 576 l 125 582 l 117 594 l 114 599 l 111 603 l 99 624 l 93 631 l 129 968 l 129 974 z "},"V":{"ha":764,"x_min":42,"x_max":685,"o":"m 590 44 l 582 36 l 576 31 l 571 26 l 564 24 l 558 24 l 149 24 l 128 25 l 111 33 l 100 42 l 96 46 l 197 151 l 499 151 l 594 50 l 590 44 m 90 513 l 104 525 l 110 531 l 122 538 l 129 540 q 144 528 139 533 l 171 504 l 174 501 q 200 475 185 493 l 213 463 l 185 169 l 79 61 l 72 68 l 65 78 l 54 97 q 44 122 47 118 l 42 128 l 42 135 l 86 508 l 90 513 m 642 104 q 611 69 638 96 q 606 73 610 71 q 592 86 601 75 l 563 117 l 558 119 l 525 154 l 511 171 l 544 472 l 554 482 q 579 506 567 493 l 582 510 l 585 513 l 608 532 q 617 537 613 535 q 624 540 622 539 l 635 535 l 651 525 l 654 521 l 660 519 l 678 504 l 685 499 l 644 119 l 642 104 z "},"W":{"ha":764,"x_min":42,"x_max":685,"o":"m 590 44 l 582 36 l 576 31 l 571 26 l 564 24 l 558 24 l 149 24 l 128 25 l 111 33 l 100 42 l 96 46 l 197 151 l 499 151 l 594 50 l 590 44 m 90 513 l 104 525 l 110 531 l 122 538 l 129 540 q 144 528 139 533 l 171 504 l 174 501 q 200 475 185 493 l 213 463 l 185 169 l 79 61 l 72 68 l 65 78 l 54 97 q 44 122 47 118 l 42 128 l 42 135 l 86 508 l 90 513 m 642 104 q 611 69 638 96 q 606 73 610 71 q 592 86 601 75 l 563 117 l 558 119 l 525 154 l 511 171 l 544 472 l 554 482 q 579 506 567 493 l 582 510 l 585 513 l 608 532 q 617 537 613 535 q 624 540 622 539 l 635 535 l 651 525 l 654 521 l 660 519 l 678 504 l 685 499 l 644 119 l 642 104 m 129 974 l 133 978 q 150 1007 144 1003 l 158 1018 l 258 908 l 228 649 l 215 638 l 185 613 l 181 611 l 149 586 l 133 576 l 125 582 l 117 594 l 114 599 l 111 603 l 99 624 l 93 631 l 129 968 l 129 974 z "},"X":{"ha":764,"x_min":42,"x_max":722,"o":"m 90 513 l 104 525 l 110 531 l 122 538 l 129 540 q 144 528 139 533 l 171 504 l 174 501 q 200 475 185 493 l 213 463 l 185 169 l 79 61 l 72 68 l 65 78 l 54 97 q 44 122 47 118 l 42 128 l 42 135 l 86 508 l 90 513 m 642 104 q 611 69 638 96 q 606 73 610 71 q 592 86 601 75 l 563 117 l 558 119 l 525 154 l 511 171 l 544 472 l 554 482 q 579 506 567 493 l 582 510 l 585 513 l 608 532 q 617 537 613 535 q 624 540 622 539 l 635 535 l 651 525 l 654 521 l 660 519 l 678 504 l 685 499 l 644 119 l 642 104 m 590 543 l 568 522 l 565 518 l 540 499 l 529 488 l 218 488 l 207 496 q 185 518 192 508 l 179 521 l 176 525 q 158 540 165 532 q 151 550 151 547 q 149 557 150 553 q 158 568 153 565 l 185 590 l 188 594 l 217 615 l 228 625 l 539 625 q 549 615 546 621 l 568 594 l 572 592 l 575 589 q 592 568 588 576 q 600 557 597 564 q 590 543 594 547 m 675 603 l 660 589 l 657 586 l 638 572 l 626 568 q 611 579 617 574 l 590 597 l 586 600 l 583 606 l 561 629 q 553 638 557 635 q 550 642 550 640 l 585 906 l 597 921 l 628 957 l 631 960 l 633 963 l 663 993 l 681 1007 l 688 1003 q 696 994 694 997 l 701 988 l 707 982 q 717 963 713 968 l 722 956 l 683 610 l 675 603 m 129 974 l 133 978 q 150 1007 144 1003 l 158 1018 l 258 908 l 228 649 l 215 638 l 185 613 l 181 611 l 149 586 l 133 576 l 125 582 l 117 594 l 114 599 l 111 603 l 99 624 l 93 631 l 129 968 l 129 974 z "},"Y":{"ha":764,"x_min":93,"x_max":722,"o":"m 590 44 l 582 36 l 576 31 l 571 26 l 564 24 l 558 24 l 149 24 l 128 25 l 111 33 l 100 42 l 96 46 l 197 151 l 499 151 l 594 50 l 590 44 m 642 104 q 611 69 638 96 q 606 73 610 71 q 592 86 601 75 l 563 117 l 558 119 l 525 154 l 511 171 l 544 472 l 554 482 q 579 506 567 493 l 582 510 l 585 513 l 608 532 q 617 537 613 535 q 624 540 622 539 l 635 535 l 651 525 l 654 521 l 660 519 l 678 504 l 685 499 l 644 119 l 642 104 m 590 543 l 568 522 l 565 518 l 540 499 l 529 488 l 218 488 l 207 496 q 185 518 192 508 l 179 521 l 176 525 q 158 540 165 532 q 151 550 151 547 q 149 557 150 553 q 158 568 153 565 l 185 590 l 188 594 l 217 615 l 228 625 l 539 625 q 549 615 546 621 l 568 594 l 572 592 l 575 589 q 592 568 588 576 q 600 557 597 564 q 590 543 594 547 m 675 603 l 660 589 l 657 586 l 638 572 l 626 568 q 611 579 617 574 l 590 597 l 586 600 l 583 606 l 561 629 q 553 638 557 635 q 550 642 550 640 l 585 906 l 597 921 l 628 957 l 631 960 l 633 963 l 663 993 l 681 1007 l 688 1003 q 696 994 694 997 l 701 988 l 707 982 q 717 963 713 968 l 722 956 l 683 610 l 675 603 m 129 974 l 133 978 q 150 1007 144 1003 l 158 1018 l 258 908 l 228 649 l 215 638 l 185 613 l 181 611 l 149 586 l 133 576 l 125 582 l 117 594 l 114 599 l 111 603 l 99 624 l 93 631 l 129 968 l 129 974 z "},"Z":{"ha":764,"x_min":42,"x_max":722,"o":"m 590 44 l 582 36 l 576 31 l 571 26 l 564 24 l 558 24 l 149 24 l 128 25 l 111 33 l 100 42 l 96 46 l 197 151 l 499 151 l 594 50 l 590 44 m 90 513 l 104 525 l 110 531 l 122 538 l 129 540 q 144 528 139 533 l 171 504 l 174 501 q 200 475 185 493 l 213 463 l 185 169 l 79 61 l 72 68 l 65 78 l 54 97 q 44 122 47 118 l 42 128 l 42 135 l 86 508 l 90 513 m 590 543 l 568 522 l 565 518 l 540 499 l 529 488 l 218 488 l 207 496 q 185 518 192 508 l 179 521 l 176 525 q 158 540 165 532 q 151 550 151 547 q 149 557 150 553 q 158 568 153 565 l 185 590 l 188 594 l 217 615 l 228 625 l 539 625 q 549 615 546 621 l 568 594 l 572 592 l 575 589 q 592 568 588 576 q 600 557 597 564 q 590 543 594 547 m 675 603 l 660 589 l 657 586 l 638 572 l 626 568 q 611 579 617 574 l 590 597 l 586 600 l 583 606 l 561 629 q 553 638 557 635 q 550 642 550 640 l 585 906 l 597 921 l 628 957 l 631 960 l 633 963 l 663 993 l 681 1007 l 688 1003 q 696 994 694 997 l 701 988 l 707 982 q 717 963 713 968 l 722 956 l 683 610 l 675 603 m 190 1046 l 203 1051 l 221 1056 l 608 1056 l 615 1054 q 631 1047 624 1054 l 647 1038 q 653 1033 651 1036 q 656 1028 654 1029 q 651 1021 654 1026 q 642 1007 649 1015 l 613 974 l 611 969 l 575 932 l 561 917 l 286 917 l 178 1036 l 190 1046 z "},"[":{"ha":764,"x_min":42,"x_max":656,"o":"m 590 44 l 582 36 l 576 31 l 571 26 l 564 24 l 558 24 l 149 24 l 128 25 l 111 33 l 100 42 l 96 46 l 197 151 l 499 151 l 594 50 l 590 44 m 90 513 l 104 525 l 110 531 l 122 538 l 129 540 q 144 528 139 533 l 171 504 l 174 501 q 200 475 185 493 l 213 463 l 185 169 l 79 61 l 72 68 l 65 78 l 54 97 q 44 122 47 118 l 42 128 l 42 135 l 86 508 l 90 513 m 129 974 l 133 978 q 150 1007 144 1003 l 158 1018 l 258 908 l 228 649 l 215 638 l 185 613 l 181 611 l 149 586 l 133 576 l 125 582 l 117 594 l 114 599 l 111 603 l 99 624 l 93 631 l 129 968 l 129 974 m 190 1046 l 203 1051 l 221 1056 l 608 1056 l 615 1054 q 631 1047 624 1054 l 647 1038 q 653 1033 651 1036 q 656 1028 654 1029 q 651 1021 654 1026 q 642 1007 649 1015 l 613 974 l 611 969 l 575 932 l 561 917 l 286 917 l 178 1036 l 190 1046 z "},"\\":{"ha":764,"x_min":93,"x_max":685,"o":"m 642 104 q 611 69 638 96 q 606 73 610 71 q 592 86 601 75 l 563 117 l 558 119 l 525 154 l 511 171 l 544 472 l 554 482 q 579 506 567 493 l 582 510 l 585 513 l 608 532 q 617 537 613 535 q 624 540 622 539 l 635 535 l 651 525 l 654 521 l 660 519 l 678 504 l 685 499 l 644 119 l 642 104 m 590 543 l 568 522 l 565 518 l 540 499 l 529 488 l 218 488 l 207 496 q 185 518 192 508 l 179 521 l 176 525 q 158 540 165 532 q 151 550 151 547 q 149 557 150 553 q 158 568 153 565 l 185 590 l 188 594 l 217 615 l 228 625 l 539 625 q 549 615 546 621 l 568 594 l 572 592 l 575 589 q 592 568 588 576 q 600 557 597 564 q 590 543 594 547 m 129 974 l 133 978 q 150 1007 144 1003 l 158 1018 l 258 908 l 228 649 l 215 638 l 185 613 l 181 611 l 149 586 l 133 576 l 125 582 l 117 594 l 114 599 l 111 603 l 99 624 l 93 631 l 129 968 l 129 974 z "},"]":{"ha":764,"x_min":96,"x_max":722,"o":"m 590 44 l 582 36 l 576 31 l 571 26 l 564 24 l 558 24 l 149 24 l 128 25 l 111 33 l 100 42 l 96 46 l 197 151 l 499 151 l 594 50 l 590 44 m 642 104 q 611 69 638 96 q 606 73 610 71 q 592 86 601 75 l 563 117 l 558 119 l 525 154 l 511 171 l 544 472 l 554 482 q 579 506 567 493 l 582 510 l 585 513 l 608 532 q 617 537 613 535 q 624 540 622 539 l 635 535 l 651 525 l 654 521 l 660 519 l 678 504 l 685 499 l 644 119 l 642 104 m 675 603 l 660 589 l 657 586 l 638 572 l 626 568 q 611 579 617 574 l 590 597 l 586 600 l 583 606 l 561 629 q 553 638 557 635 q 550 642 550 640 l 585 906 l 597 921 l 628 957 l 631 960 l 633 963 l 663 993 l 681 1007 l 688 1003 q 696 994 694 997 l 701 988 l 707 982 q 717 963 713 968 l 722 956 l 683 610 l 675 603 m 190 1046 l 203 1051 l 221 1056 l 608 1056 l 615 1054 q 631 1047 624 1054 l 647 1038 q 653 1033 651 1036 q 656 1028 654 1029 q 651 1021 654 1026 q 642 1007 649 1015 l 613 974 l 611 969 l 575 932 l 561 917 l 286 917 l 178 1036 l 190 1046 z "},"^":{"ha":764,"x_min":93,"x_max":722,"o":"m 675 603 l 660 589 l 657 586 l 638 572 l 626 568 q 611 579 617 574 l 590 597 l 586 600 l 583 606 l 561 629 q 553 638 557 635 q 550 642 550 640 l 585 906 l 597 921 l 628 957 l 631 960 l 633 963 l 663 993 l 681 1007 l 688 1003 q 696 994 694 997 l 701 988 l 707 982 q 717 963 713 968 l 722 956 l 683 610 l 675 603 m 129 974 l 133 978 q 150 1007 144 1003 l 158 1018 l 258 908 l 228 649 l 215 638 l 185 613 l 181 611 l 149 586 l 133 576 l 125 582 l 117 594 l 114 599 l 111 603 l 99 624 l 93 631 l 129 968 l 129 974 m 190 1046 l 203 1051 l 221 1056 l 608 1056 l 615 1054 q 631 1047 624 1054 l 647 1038 q 653 1033 651 1036 q 656 1028 654 1029 q 651 1021 654 1026 q 642 1007 649 1015 l 613 974 l 611 969 l 575 932 l 561 917 l 286 917 l 178 1036 l 190 1046 z "},"_":{"ha":764,"x_min":149,"x_max":600,"o":"m 590 543 l 568 522 l 565 518 l 540 499 l 529 488 l 218 488 l 207 496 q 185 518 192 508 l 179 521 l 176 525 q 158 540 165 532 q 151 550 151 547 q 149 557 150 553 q 158 568 153 565 l 185 590 l 188 594 l 217 615 l 228 625 l 539 625 q 549 615 546 621 l 568 594 l 572 592 l 575 589 q 592 568 588 576 q 600 557 597 564 q 590 543 594 547 z "},"`":{"ha":764,"x_min":93,"x_max":258,"o":"m 129 974 l 133 978 q 150 1007 144 1003 l 158 1018 l 258 908 l 228 649 l 215 638 l 185 613 l 181 611 l 149 586 l 133 576 l 125 582 l 117 594 l 114 599 l 111 603 l 99 624 l 93 631 l 129 968 l 129 974 z "},"a":{"ha":764,"x_min":42,"x_max":722,"o":"m 90 513 l 104 525 l 110 531 l 122 538 l 129 540 q 144 528 139 533 l 171 504 l 174 501 q 200 475 185 493 l 213 463 l 185 169 l 79 61 l 72 68 l 65 78 l 54 97 q 44 122 47 118 l 42 128 l 42 135 l 86 508 l 90 513 m 642 104 q 611 69 638 96 q 606 73 610 71 q 592 86 601 75 l 563 117 l 558 119 l 525 154 l 511 171 l 544 472 l 554 482 q 579 506 567 493 l 582 510 l 585 513 l 608 532 q 617 537 613 535 q 624 540 622 539 l 635 535 l 651 525 l 654 521 l 660 519 l 678 504 l 685 499 l 644 119 l 642 104 m 590 543 l 568 522 l 565 518 l 540 499 l 529 488 l 218 488 l 207 496 q 185 518 192 508 l 179 521 l 176 525 q 158 540 165 532 q 151 550 151 547 q 149 557 150 553 q 158 568 153 565 l 185 590 l 188 594 l 217 615 l 228 625 l 539 625 q 549 615 546 621 l 568 594 l 572 592 l 575 589 q 592 568 588 576 q 600 557 597 564 q 590 543 594 547 m 675 603 l 660 589 l 657 586 l 638 572 l 626 568 q 611 579 617 574 l 590 597 l 586 600 l 583 606 l 561 629 q 553 638 557 635 q 550 642 550 640 l 585 906 l 597 921 l 628 957 l 631 960 l 633 963 l 663 993 l 681 1007 l 688 1003 q 696 994 694 997 l 701 988 l 707 982 q 717 963 713 968 l 722 956 l 683 610 l 675 603 m 129 974 l 133 978 q 150 1007 144 1003 l 158 1018 l 258 908 l 228 649 l 215 638 l 185 613 l 181 611 l 149 586 l 133 576 l 125 582 l 117 594 l 114 599 l 111 603 l 99 624 l 93 631 l 129 968 l 129 974 m 190 1046 l 203 1051 l 221 1056 l 608 1056 l 615 1054 q 631 1047 624 1054 l 647 1038 q 653 1033 651 1036 q 656 1028 654 1029 q 651 1021 654 1026 q 642 1007 649 1015 l 613 974 l 611 969 l 575 932 l 561 917 l 286 917 l 178 1036 l 190 1046 z "},"b":{"ha":764,"x_min":42,"x_max":685,"o":"m 590 44 l 582 36 l 576 31 l 571 26 l 564 24 l 558 24 l 149 24 l 128 25 l 111 33 l 100 42 l 96 46 l 197 151 l 499 151 l 594 50 l 590 44 m 90 513 l 104 525 l 110 531 l 122 538 l 129 540 q 144 528 139 533 l 171 504 l 174 501 q 200 475 185 493 l 213 463 l 185 169 l 79 61 l 72 68 l 65 78 l 54 97 q 44 122 47 118 l 42 128 l 42 135 l 86 508 l 90 513 m 642 104 q 611 69 638 96 q 606 73 610 71 q 592 86 601 75 l 563 117 l 558 119 l 525 154 l 511 171 l 544 472 l 554 482 q 579 506 567 493 l 582 510 l 585 513 l 608 532 q 617 537 613 535 q 624 540 622 539 l 635 535 l 651 525 l 654 521 l 660 519 l 678 504 l 685 499 l 644 119 l 642 104 m 590 543 l 568 522 l 565 518 l 540 499 l 529 488 l 218 488 l 207 496 q 185 518 192 508 l 179 521 l 176 525 q 158 540 165 532 q 151 550 151 547 q 149 557 150 553 q 158 568 153 565 l 185 590 l 188 594 l 217 615 l 228 625 l 539 625 q 549 615 546 621 l 568 594 l 572 592 l 575 589 q 592 568 588 576 q 600 557 597 564 q 590 543 594 547 m 129 974 l 133 978 q 150 1007 144 1003 l 158 1018 l 258 908 l 228 649 l 215 638 l 185 613 l 181 611 l 149 586 l 133 576 l 125 582 l 117 594 l 114 599 l 111 603 l 99 624 l 93 631 l 129 968 l 129 974 z "},"c":{"ha":764,"x_min":42,"x_max":600,"o":"m 590 44 l 582 36 l 576 31 l 571 26 l 564 24 l 558 24 l 149 24 l 128 25 l 111 33 l 100 42 l 96 46 l 197 151 l 499 151 l 594 50 l 590 44 m 90 513 l 104 525 l 110 531 l 122 538 l 129 540 q 144 528 139 533 l 171 504 l 174 501 q 200 475 185 493 l 213 463 l 185 169 l 79 61 l 72 68 l 65 78 l 54 97 q 44 122 47 118 l 42 128 l 42 135 l 86 508 l 90 513 m 590 543 l 568 522 l 565 518 l 540 499 l 529 488 l 218 488 l 207 496 q 185 518 192 508 l 179 521 l 176 525 q 158 540 165 532 q 151 550 151 547 q 149 557 150 553 q 158 568 153 565 l 185 590 l 188 594 l 217 615 l 228 625 l 539 625 q 549 615 546 621 l 568 594 l 572 592 l 575 589 q 592 568 588 576 q 600 557 597 564 q 590 543 594 547 z "},"d":{"ha":764,"x_min":42,"x_max":722,"o":"m 590 44 l 582 36 l 576 31 l 571 26 l 564 24 l 558 24 l 149 24 l 128 25 l 111 33 l 100 42 l 96 46 l 197 151 l 499 151 l 594 50 l 590 44 m 90 513 l 104 525 l 110 531 l 122 538 l 129 540 q 144 528 139 533 l 171 504 l 174 501 q 200 475 185 493 l 213 463 l 185 169 l 79 61 l 72 68 l 65 78 l 54 97 q 44 122 47 118 l 42 128 l 42 135 l 86 508 l 90 513 m 642 104 q 611 69 638 96 q 606 73 610 71 q 592 86 601 75 l 563 117 l 558 119 l 525 154 l 511 171 l 544 472 l 554 482 q 579 506 567 493 l 582 510 l 585 513 l 608 532 q 617 537 613 535 q 624 540 622 539 l 635 535 l 651 525 l 654 521 l 660 519 l 678 504 l 685 499 l 644 119 l 642 104 m 590 543 l 568 522 l 565 518 l 540 499 l 529 488 l 218 488 l 207 496 q 185 518 192 508 l 179 521 l 176 525 q 158 540 165 532 q 151 550 151 547 q 149 557 150 553 q 158 568 153 565 l 185 590 l 188 594 l 217 615 l 228 625 l 539 625 q 549 615 546 621 l 568 594 l 572 592 l 575 589 q 592 568 588 576 q 600 557 597 564 q 590 543 594 547 m 675 603 l 660 589 l 657 586 l 638 572 l 626 568 q 611 579 617 574 l 590 597 l 586 600 l 583 606 l 561 629 q 553 638 557 635 q 550 642 550 640 l 585 906 l 597 921 l 628 957 l 631 960 l 633 963 l 663 993 l 681 1007 l 688 1003 q 696 994 694 997 l 701 988 l 707 982 q 717 963 713 968 l 722 956 l 683 610 l 675 603 z "},"e":{"ha":764,"x_min":42,"x_max":656,"o":"m 590 44 l 582 36 l 576 31 l 571 26 l 564 24 l 558 24 l 149 24 l 128 25 l 111 33 l 100 42 l 96 46 l 197 151 l 499 151 l 594 50 l 590 44 m 90 513 l 104 525 l 110 531 l 122 538 l 129 540 q 144 528 139 533 l 171 504 l 174 501 q 200 475 185 493 l 213 463 l 185 169 l 79 61 l 72 68 l 65 78 l 54 97 q 44 122 47 118 l 42 128 l 42 135 l 86 508 l 90 513 m 590 543 l 568 522 l 565 518 l 540 499 l 529 488 l 218 488 l 207 496 q 185 518 192 508 l 179 521 l 176 525 q 158 540 165 532 q 151 550 151 547 q 149 557 150 553 q 158 568 153 565 l 185 590 l 188 594 l 217 615 l 228 625 l 539 625 q 549 615 546 621 l 568 594 l 572 592 l 575 589 q 592 568 588 576 q 600 557 597 564 q 590 543 594 547 m 129 974 l 133 978 q 150 1007 144 1003 l 158 1018 l 258 908 l 228 649 l 215 638 l 185 613 l 181 611 l 149 586 l 133 576 l 125 582 l 117 594 l 114 599 l 111 603 l 99 624 l 93 631 l 129 968 l 129 974 m 190 1046 l 203 1051 l 221 1056 l 608 1056 l 615 1054 q 631 1047 624 1054 l 647 1038 q 653 1033 651 1036 q 656 1028 654 1029 q 651 1021 654 1026 q 642 1007 649 1015 l 613 974 l 611 969 l 575 932 l 561 917 l 286 917 l 178 1036 l 190 1046 z "},"f":{"ha":764,"x_min":42,"x_max":656,"o":"m 90 513 l 104 525 l 110 531 l 122 538 l 129 540 q 144 528 139 533 l 171 504 l 174 501 q 200 475 185 493 l 213 463 l 185 169 l 79 61 l 72 68 l 65 78 l 54 97 q 44 122 47 118 l 42 128 l 42 135 l 86 508 l 90 513 m 590 543 l 568 522 l 565 518 l 540 499 l 529 488 l 218 488 l 207 496 q 185 518 192 508 l 179 521 l 176 525 q 158 540 165 532 q 151 550 151 547 q 149 557 150 553 q 158 568 153 565 l 185 590 l 188 594 l 217 615 l 228 625 l 539 625 q 549 615 546 621 l 568 594 l 572 592 l 575 589 q 592 568 588 576 q 600 557 597 564 q 590 543 594 547 m 129 974 l 133 978 q 150 1007 144 1003 l 158 1018 l 258 908 l 228 649 l 215 638 l 185 613 l 181 611 l 149 586 l 133 576 l 125 582 l 117 594 l 114 599 l 111 603 l 99 624 l 93 631 l 129 968 l 129 974 m 190 1046 l 203 1051 l 221 1056 l 608 1056 l 615 1054 q 631 1047 624 1054 l 647 1038 q 653 1033 651 1036 q 656 1028 654 1029 q 651 1021 654 1026 q 642 1007 649 1015 l 613 974 l 611 969 l 575 932 l 561 917 l 286 917 l 178 1036 l 190 1046 z "},"g":{"ha":764,"x_min":42,"x_max":685,"o":"m 590 44 l 582 36 l 576 31 l 571 26 l 564 24 l 558 24 l 149 24 l 128 25 l 111 33 l 100 42 l 96 46 l 197 151 l 499 151 l 594 50 l 590 44 m 90 513 l 104 525 l 110 531 l 122 538 l 129 540 q 144 528 139 533 l 171 504 l 174 501 q 200 475 185 493 l 213 463 l 185 169 l 79 61 l 72 68 l 65 78 l 54 97 q 44 122 47 118 l 42 128 l 42 135 l 86 508 l 90 513 m 642 104 q 611 69 638 96 q 606 73 610 71 q 592 86 601 75 l 563 117 l 558 119 l 525 154 l 511 171 l 544 472 l 554 482 q 579 506 567 493 l 582 510 l 585 513 l 608 532 q 617 537 613 535 q 624 540 622 539 l 635 535 l 651 525 l 654 521 l 660 519 l 678 504 l 685 499 l 644 119 l 642 104 m 129 974 l 133 978 q 150 1007 144 1003 l 158 1018 l 258 908 l 228 649 l 215 638 l 185 613 l 181 611 l 149 586 l 133 576 l 125 582 l 117 594 l 114 599 l 111 603 l 99 624 l 93 631 l 129 968 l 129 974 m 190 1046 l 203 1051 l 221 1056 l 608 1056 l 615 1054 q 631 1047 624 1054 l 647 1038 q 653 1033 651 1036 q 656 1028 654 1029 q 651 1021 654 1026 q 642 1007 649 1015 l 613 974 l 611 969 l 575 932 l 561 917 l 286 917 l 178 1036 l 190 1046 z "},"h":{"ha":764,"x_min":42,"x_max":685,"o":"m 90 513 l 104 525 l 110 531 l 122 538 l 129 540 q 144 528 139 533 l 171 504 l 174 501 q 200 475 185 493 l 213 463 l 185 169 l 79 61 l 72 68 l 65 78 l 54 97 q 44 122 47 118 l 42 128 l 42 135 l 86 508 l 90 513 m 642 104 q 611 69 638 96 q 606 73 610 71 q 592 86 601 75 l 563 117 l 558 119 l 525 154 l 511 171 l 544 472 l 554 482 q 579 506 567 493 l 582 510 l 585 513 l 608 532 q 617 537 613 535 q 624 540 622 539 l 635 535 l 651 525 l 654 521 l 660 519 l 678 504 l 685 499 l 644 119 l 642 104 m 590 543 l 568 522 l 565 518 l 540 499 l 529 488 l 218 488 l 207 496 q 185 518 192 508 l 179 521 l 176 525 q 158 540 165 532 q 151 550 151 547 q 149 557 150 553 q 158 568 153 565 l 185 590 l 188 594 l 217 615 l 228 625 l 539 625 q 549 615 546 621 l 568 594 l 572 592 l 575 589 q 592 568 588 576 q 600 557 597 564 q 590 543 594 547 m 129 974 l 133 978 q 150 1007 144 1003 l 158 1018 l 258 908 l 228 649 l 215 638 l 185 613 l 181 611 l 149 586 l 133 576 l 125 582 l 117 594 l 114 599 l 111 603 l 99 624 l 93 631 l 129 968 l 129 974 z "},"i":{"ha":764,"x_min":511,"x_max":722,"o":"m 642 104 q 611 69 638 96 q 606 73 610 71 q 592 86 601 75 l 563 117 l 558 119 l 525 154 l 511 171 l 544 472 l 554 482 q 579 506 567 493 l 582 510 l 585 513 l 608 532 q 617 537 613 535 q 624 540 622 539 l 635 535 l 651 525 l 654 521 l 660 519 l 678 504 l 685 499 l 644 119 l 642 104 m 675 603 l 660 589 l 657 586 l 638 572 l 626 568 q 611 579 617 574 l 590 597 l 586 600 l 583 606 l 561 629 q 553 638 557 635 q 550 642 550 640 l 585 906 l 597 921 l 628 957 l 631 960 l 633 963 l 663 993 l 681 1007 l 688 1003 q 696 994 694 997 l 701 988 l 707 982 q 717 963 713 968 l 722 956 l 683 610 l 675 603 z "},"j":{"ha":764,"x_min":96,"x_max":722,"o":"m 590 44 l 582 36 l 576 31 l 571 26 l 564 24 l 558 24 l 149 24 l 128 25 l 111 33 l 100 42 l 96 46 l 197 151 l 499 151 l 594 50 l 590 44 m 642 104 q 611 69 638 96 q 606 73 610 71 q 592 86 601 75 l 563 117 l 558 119 l 525 154 l 511 171 l 544 472 l 554 482 q 579 506 567 493 l 582 510 l 585 513 l 608 532 q 617 537 613 535 q 624 540 622 539 l 635 535 l 651 525 l 654 521 l 660 519 l 678 504 l 685 499 l 644 119 l 642 104 m 675 603 l 660 589 l 657 586 l 638 572 l 626 568 q 611 579 617 574 l 590 597 l 586 600 l 583 606 l 561 629 q 553 638 557 635 q 550 642 550 640 l 585 906 l 597 921 l 628 957 l 631 960 l 633 963 l 663 993 l 681 1007 l 688 1003 q 696 994 694 997 l 701 988 l 707 982 q 717 963 713 968 l 722 956 l 683 610 l 675 603 z "},"k":{"ha":764,"x_min":42,"x_max":722,"o":"m 90 513 l 104 525 l 110 531 l 122 538 l 129 540 q 144 528 139 533 l 171 504 l 174 501 q 200 475 185 493 l 213 463 l 185 169 l 79 61 l 72 68 l 65 78 l 54 97 q 44 122 47 118 l 42 128 l 42 135 l 86 508 l 90 513 m 642 104 q 611 69 638 96 q 606 73 610 71 q 592 86 601 75 l 563 117 l 558 119 l 525 154 l 511 171 l 544 472 l 554 482 q 579 506 567 493 l 582 510 l 585 513 l 608 532 q 617 537 613 535 q 624 540 622 539 l 635 535 l 651 525 l 654 521 l 660 519 l 678 504 l 685 499 l 644 119 l 642 104 m 590 543 l 568 522 l 565 518 l 540 499 l 529 488 l 218 488 l 207 496 q 185 518 192 508 l 179 521 l 176 525 q 158 540 165 532 q 151 550 151 547 q 149 557 150 553 q 158 568 153 565 l 185 590 l 188 594 l 217 615 l 228 625 l 539 625 q 549 615 546 621 l 568 594 l 572 592 l 575 589 q 592 568 588 576 q 600 557 597 564 q 590 543 594 547 m 675 603 l 660 589 l 657 586 l 638 572 l 626 568 q 611 579 617 574 l 590 597 l 586 600 l 583 606 l 561 629 q 553 638 557 635 q 550 642 550 640 l 585 906 l 597 921 l 628 957 l 631 960 l 633 963 l 663 993 l 681 1007 l 688 1003 q 696 994 694 997 l 701 988 l 707 982 q 717 963 713 968 l 722 956 l 683 610 l 675 603 m 129 974 l 133 978 q 150 1007 144 1003 l 158 1018 l 258 908 l 228 649 l 215 638 l 185 613 l 181 611 l 149 586 l 133 576 l 125 582 l 117 594 l 114 599 l 111 603 l 99 624 l 93 631 l 129 968 l 129 974 z "},"l":{"ha":764,"x_min":42,"x_max":594,"o":"m 590 44 l 582 36 l 576 31 l 571 26 l 564 24 l 558 24 l 149 24 l 128 25 l 111 33 l 100 42 l 96 46 l 197 151 l 499 151 l 594 50 l 590 44 m 90 513 l 104 525 l 110 531 l 122 538 l 129 540 q 144 528 139 533 l 171 504 l 174 501 q 200 475 185 493 l 213 463 l 185 169 l 79 61 l 72 68 l 65 78 l 54 97 q 44 122 47 118 l 42 128 l 42 135 l 86 508 l 90 513 m 129 974 l 133 978 q 150 1007 144 1003 l 158 1018 l 258 908 l 228 649 l 215 638 l 185 613 l 181 611 l 149 586 l 133 576 l 125 582 l 117 594 l 114 599 l 111 603 l 99 624 l 93 631 l 129 968 l 129 974 z "},"m":{"ha":764,"x_min":42,"x_max":722,"o":"m 90 513 l 104 525 l 110 531 l 122 538 l 129 540 q 144 528 139 533 l 171 504 l 174 501 q 200 475 185 493 l 213 463 l 185 169 l 79 61 l 72 68 l 65 78 l 54 97 q 44 122 47 118 l 42 128 l 42 135 l 86 508 l 90 513 m 675 603 l 660 589 l 657 586 l 638 572 l 626 568 q 611 579 617 574 l 590 597 l 586 600 l 583 606 l 561 629 q 553 638 557 635 q 550 642 550 640 l 585 906 l 597 921 l 628 957 l 631 960 l 633 963 l 663 993 l 681 1007 l 688 1003 q 696 994 694 997 l 701 988 l 707 982 q 717 963 713 968 l 722 956 l 683 610 l 675 603 m 129 974 l 133 978 q 150 1007 144 1003 l 158 1018 l 258 908 l 228 649 l 215 638 l 185 613 l 181 611 l 149 586 l 133 576 l 125 582 l 117 594 l 114 599 l 111 603 l 99 624 l 93 631 l 129 968 l 129 974 m 190 1046 l 203 1051 l 221 1056 l 608 1056 l 615 1054 q 631 1047 624 1054 l 647 1038 q 653 1033 651 1036 q 656 1028 654 1029 q 651 1021 654 1026 q 642 1007 649 1015 l 613 974 l 611 969 l 575 932 l 561 917 l 286 917 l 178 1036 l 190 1046 z "},"n":{"ha":764,"x_min":42,"x_max":685,"o":"m 90 513 l 104 525 l 110 531 l 122 538 l 129 540 q 144 528 139 533 l 171 504 l 174 501 q 200 475 185 493 l 213 463 l 185 169 l 79 61 l 72 68 l 65 78 l 54 97 q 44 122 47 118 l 42 128 l 42 135 l 86 508 l 90 513 m 642 104 q 611 69 638 96 q 606 73 610 71 q 592 86 601 75 l 563 117 l 558 119 l 525 154 l 511 171 l 544 472 l 554 482 q 579 506 567 493 l 582 510 l 585 513 l 608 532 q 617 537 613 535 q 624 540 622 539 l 635 535 l 651 525 l 654 521 l 660 519 l 678 504 l 685 499 l 644 119 l 642 104 m 590 543 l 568 522 l 565 518 l 540 499 l 529 488 l 218 488 l 207 496 q 185 518 192 508 l 179 521 l 176 525 q 158 540 165 532 q 151 550 151 547 q 149 557 150 553 q 158 568 153 565 l 185 590 l 188 594 l 217 615 l 228 625 l 539 625 q 549 615 546 621 l 568 594 l 572 592 l 575 589 q 592 568 588 576 q 600 557 597 564 q 590 543 594 547 z "},"o":{"ha":764,"x_min":42,"x_max":685,"o":"m 590 44 l 582 36 l 576 31 l 571 26 l 564 24 l 558 24 l 149 24 l 128 25 l 111 33 l 100 42 l 96 46 l 197 151 l 499 151 l 594 50 l 590 44 m 90 513 l 104 525 l 110 531 l 122 538 l 129 540 q 144 528 139 533 l 171 504 l 174 501 q 200 475 185 493 l 213 463 l 185 169 l 79 61 l 72 68 l 65 78 l 54 97 q 44 122 47 118 l 42 128 l 42 135 l 86 508 l 90 513 m 642 104 q 611 69 638 96 q 606 73 610 71 q 592 86 601 75 l 563 117 l 558 119 l 525 154 l 511 171 l 544 472 l 554 482 q 579 506 567 493 l 582 510 l 585 513 l 608 532 q 617 537 613 535 q 624 540 622 539 l 635 535 l 651 525 l 654 521 l 660 519 l 678 504 l 685 499 l 644 119 l 642 104 m 590 543 l 568 522 l 565 518 l 540 499 l 529 488 l 218 488 l 207 496 q 185 518 192 508 l 179 521 l 176 525 q 158 540 165 532 q 151 550 151 547 q 149 557 150 553 q 158 568 153 565 l 185 590 l 188 594 l 217 615 l 228 625 l 539 625 q 549 615 546 621 l 568 594 l 572 592 l 575 589 q 592 568 588 576 q 600 557 597 564 q 590 543 594 547 z "},"p":{"ha":764,"x_min":42,"x_max":722,"o":"m 90 513 l 104 525 l 110 531 l 122 538 l 129 540 q 144 528 139 533 l 171 504 l 174 501 q 200 475 185 493 l 213 463 l 185 169 l 79 61 l 72 68 l 65 78 l 54 97 q 44 122 47 118 l 42 128 l 42 135 l 86 508 l 90 513 m 590 543 l 568 522 l 565 518 l 540 499 l 529 488 l 218 488 l 207 496 q 185 518 192 508 l 179 521 l 176 525 q 158 540 165 532 q 151 550 151 547 q 149 557 150 553 q 158 568 153 565 l 185 590 l 188 594 l 217 615 l 228 625 l 539 625 q 549 615 546 621 l 568 594 l 572 592 l 575 589 q 592 568 588 576 q 600 557 597 564 q 590 543 594 547 m 675 603 l 660 589 l 657 586 l 638 572 l 626 568 q 611 579 617 574 l 590 597 l 586 600 l 583 606 l 561 629 q 553 638 557 635 q 550 642 550 640 l 585 906 l 597 921 l 628 957 l 631 960 l 633 963 l 663 993 l 681 1007 l 688 1003 q 696 994 694 997 l 701 988 l 707 982 q 717 963 713 968 l 722 956 l 683 610 l 675 603 m 129 974 l 133 978 q 150 1007 144 1003 l 158 1018 l 258 908 l 228 649 l 215 638 l 185 613 l 181 611 l 149 586 l 133 576 l 125 582 l 117 594 l 114 599 l 111 603 l 99 624 l 93 631 l 129 968 l 129 974 m 190 1046 l 203 1051 l 221 1056 l 608 1056 l 615 1054 q 631 1047 624 1054 l 647 1038 q 653 1033 651 1036 q 656 1028 654 1029 q 651 1021 654 1026 q 642 1007 649 1015 l 613 974 l 611 969 l 575 932 l 561 917 l 286 917 l 178 1036 l 190 1046 z "},"q":{"ha":764,"x_min":93,"x_max":722,"o":"m 642 104 q 611 69 638 96 q 606 73 610 71 q 592 86 601 75 l 563 117 l 558 119 l 525 154 l 511 171 l 544 472 l 554 482 q 579 506 567 493 l 582 510 l 585 513 l 608 532 q 617 537 613 535 q 624 540 622 539 l 635 535 l 651 525 l 654 521 l 660 519 l 678 504 l 685 499 l 644 119 l 642 104 m 590 543 l 568 522 l 565 518 l 540 499 l 529 488 l 218 488 l 207 496 q 185 518 192 508 l 179 521 l 176 525 q 158 540 165 532 q 151 550 151 547 q 149 557 150 553 q 158 568 153 565 l 185 590 l 188 594 l 217 615 l 228 625 l 539 625 q 549 615 546 621 l 568 594 l 572 592 l 575 589 q 592 568 588 576 q 600 557 597 564 q 590 543 594 547 m 675 603 l 660 589 l 657 586 l 638 572 l 626 568 q 611 579 617 574 l 590 597 l 586 600 l 583 606 l 561 629 q 553 638 557 635 q 550 642 550 640 l 585 906 l 597 921 l 628 957 l 631 960 l 633 963 l 663 993 l 681 1007 l 688 1003 q 696 994 694 997 l 701 988 l 707 982 q 717 963 713 968 l 722 956 l 683 610 l 675 603 m 129 974 l 133 978 q 150 1007 144 1003 l 158 1018 l 258 908 l 228 649 l 215 638 l 185 613 l 181 611 l 149 586 l 133 576 l 125 582 l 117 594 l 114 599 l 111 603 l 99 624 l 93 631 l 129 968 l 129 974 m 190 1046 l 203 1051 l 221 1056 l 608 1056 l 615 1054 q 631 1047 624 1054 l 647 1038 q 653 1033 651 1036 q 656 1028 654 1029 q 651 1021 654 1026 q 642 1007 649 1015 l 613 974 l 611 969 l 575 932 l 561 917 l 286 917 l 178 1036 l 190 1046 z "},"r":{"ha":764,"x_min":42,"x_max":600,"o":"m 90 513 l 104 525 l 110 531 l 122 538 l 129 540 q 144 528 139 533 l 171 504 l 174 501 q 200 475 185 493 l 213 463 l 185 169 l 79 61 l 72 68 l 65 78 l 54 97 q 44 122 47 118 l 42 128 l 42 135 l 86 508 l 90 513 m 590 543 l 568 522 l 565 518 l 540 499 l 529 488 l 218 488 l 207 496 q 185 518 192 508 l 179 521 l 176 525 q 158 540 165 532 q 151 550 151 547 q 149 557 150 553 q 158 568 153 565 l 185 590 l 188 594 l 217 615 l 228 625 l 539 625 q 549 615 546 621 l 568 594 l 572 592 l 575 589 q 592 568 588 576 q 600 557 597 564 q 590 543 594 547 z "},"s":{"ha":764,"x_min":93,"x_max":685,"o":"m 590 44 l 582 36 l 576 31 l 571 26 l 564 24 l 558 24 l 149 24 l 128 25 l 111 33 l 100 42 l 96 46 l 197 151 l 499 151 l 594 50 l 590 44 m 642 104 q 611 69 638 96 q 606 73 610 71 q 592 86 601 75 l 563 117 l 558 119 l 525 154 l 511 171 l 544 472 l 554 482 q 579 506 567 493 l 582 510 l 585 513 l 608 532 q 617 537 613 535 q 624 540 622 539 l 635 535 l 651 525 l 654 521 l 660 519 l 678 504 l 685 499 l 644 119 l 642 104 m 590 543 l 568 522 l 565 518 l 540 499 l 529 488 l 218 488 l 207 496 q 185 518 192 508 l 179 521 l 176 525 q 158 540 165 532 q 151 550 151 547 q 149 557 150 553 q 158 568 153 565 l 185 590 l 188 594 l 217 615 l 228 625 l 539 625 q 549 615 546 621 l 568 594 l 572 592 l 575 589 q 592 568 588 576 q 600 557 597 564 q 590 543 594 547 m 129 974 l 133 978 q 150 1007 144 1003 l 158 1018 l 258 908 l 228 649 l 215 638 l 185 613 l 181 611 l 149 586 l 133 576 l 125 582 l 117 594 l 114 599 l 111 603 l 99 624 l 93 631 l 129 968 l 129 974 m 190 1046 l 203 1051 l 221 1056 l 608 1056 l 615 1054 q 631 1047 624 1054 l 647 1038 q 653 1033 651 1036 q 656 1028 654 1029 q 651 1021 654 1026 q 642 1007 649 1015 l 613 974 l 611 969 l 575 932 l 561 917 l 286 917 l 178 1036 l 190 1046 z "},"t":{"ha":764,"x_min":42,"x_max":600,"o":"m 590 44 l 582 36 l 576 31 l 571 26 l 564 24 l 558 24 l 149 24 l 128 25 l 111 33 l 100 42 l 96 46 l 197 151 l 499 151 l 594 50 l 590 44 m 90 513 l 104 525 l 110 531 l 122 538 l 129 540 q 144 528 139 533 l 171 504 l 174 501 q 200 475 185 493 l 213 463 l 185 169 l 79 61 l 72 68 l 65 78 l 54 97 q 44 122 47 118 l 42 128 l 42 135 l 86 508 l 90 513 m 590 543 l 568 522 l 565 518 l 540 499 l 529 488 l 218 488 l 207 496 q 185 518 192 508 l 179 521 l 176 525 q 158 540 165 532 q 151 550 151 547 q 149 557 150 553 q 158 568 153 565 l 185 590 l 188 594 l 217 615 l 228 625 l 539 625 q 549 615 546 621 l 568 594 l 572 592 l 575 589 q 592 568 588 576 q 600 557 597 564 q 590 543 594 547 m 129 974 l 133 978 q 150 1007 144 1003 l 158 1018 l 258 908 l 228 649 l 215 638 l 185 613 l 181 611 l 149 586 l 133 576 l 125 582 l 117 594 l 114 599 l 111 603 l 99 624 l 93 631 l 129 968 l 129 974 z "},"u":{"ha":764,"x_min":42,"x_max":722,"o":"m 590 44 l 582 36 l 576 31 l 571 26 l 564 24 l 558 24 l 149 24 l 128 25 l 111 33 l 100 42 l 96 46 l 197 151 l 499 151 l 594 50 l 590 44 m 90 513 l 104 525 l 110 531 l 122 538 l 129 540 q 144 528 139 533 l 171 504 l 174 501 q 200 475 185 493 l 213 463 l 185 169 l 79 61 l 72 68 l 65 78 l 54 97 q 44 122 47 118 l 42 128 l 42 135 l 86 508 l 90 513 m 642 104 q 611 69 638 96 q 606 73 610 71 q 592 86 601 75 l 563 117 l 558 119 l 525 154 l 511 171 l 544 472 l 554 482 q 579 506 567 493 l 582 510 l 585 513 l 608 532 q 617 537 613 535 q 624 540 622 539 l 635 535 l 651 525 l 654 521 l 660 519 l 678 504 l 685 499 l 644 119 l 642 104 m 675 603 l 660 589 l 657 586 l 638 572 l 626 568 q 611 579 617 574 l 590 597 l 586 600 l 583 606 l 561 629 q 553 638 557 635 q 550 642 550 640 l 585 906 l 597 921 l 628 957 l 631 960 l 633 963 l 663 993 l 681 1007 l 688 1003 q 696 994 694 997 l 701 988 l 707 982 q 717 963 713 968 l 722 956 l 683 610 l 675 603 m 129 974 l 133 978 q 150 1007 144 1003 l 158 1018 l 258 908 l 228 649 l 215 638 l 185 613 l 181 611 l 149 586 l 133 576 l 125 582 l 117 594 l 114 599 l 111 603 l 99 624 l 93 631 l 129 968 l 129 974 z "},"v":{"ha":764,"x_min":42,"x_max":685,"o":"m 590 44 l 582 36 l 576 31 l 571 26 l 564 24 l 558 24 l 149 24 l 128 25 l 111 33 l 100 42 l 96 46 l 197 151 l 499 151 l 594 50 l 590 44 m 90 513 l 104 525 l 110 531 l 122 538 l 129 540 q 144 528 139 533 l 171 504 l 174 501 q 200 475 185 493 l 213 463 l 185 169 l 79 61 l 72 68 l 65 78 l 54 97 q 44 122 47 118 l 42 128 l 42 135 l 86 508 l 90 513 m 642 104 q 611 69 638 96 q 606 73 610 71 q 592 86 601 75 l 563 117 l 558 119 l 525 154 l 511 171 l 544 472 l 554 482 q 579 506 567 493 l 582 510 l 585 513 l 608 532 q 617 537 613 535 q 624 540 622 539 l 635 535 l 651 525 l 654 521 l 660 519 l 678 504 l 685 499 l 644 119 l 642 104 z "},"w":{"ha":764,"x_min":42,"x_max":685,"o":"m 590 44 l 582 36 l 576 31 l 571 26 l 564 24 l 558 24 l 149 24 l 128 25 l 111 33 l 100 42 l 96 46 l 197 151 l 499 151 l 594 50 l 590 44 m 90 513 l 104 525 l 110 531 l 122 538 l 129 540 q 144 528 139 533 l 171 504 l 174 501 q 200 475 185 493 l 213 463 l 185 169 l 79 61 l 72 68 l 65 78 l 54 97 q 44 122 47 118 l 42 128 l 42 135 l 86 508 l 90 513 m 642 104 q 611 69 638 96 q 606 73 610 71 q 592 86 601 75 l 563 117 l 558 119 l 525 154 l 511 171 l 544 472 l 554 482 q 579 506 567 493 l 582 510 l 585 513 l 608 532 q 617 537 613 535 q 624 540 622 539 l 635 535 l 651 525 l 654 521 l 660 519 l 678 504 l 685 499 l 644 119 l 642 104 m 129 974 l 133 978 q 150 1007 144 1003 l 158 1018 l 258 908 l 228 649 l 215 638 l 185 613 l 181 611 l 149 586 l 133 576 l 125 582 l 117 594 l 114 599 l 111 603 l 99 624 l 93 631 l 129 968 l 129 974 z "},"x":{"ha":764,"x_min":42,"x_max":722,"o":"m 90 513 l 104 525 l 110 531 l 122 538 l 129 540 q 144 528 139 533 l 171 504 l 174 501 q 200 475 185 493 l 213 463 l 185 169 l 79 61 l 72 68 l 65 78 l 54 97 q 44 122 47 118 l 42 128 l 42 135 l 86 508 l 90 513 m 642 104 q 611 69 638 96 q 606 73 610 71 q 592 86 601 75 l 563 117 l 558 119 l 525 154 l 511 171 l 544 472 l 554 482 q 579 506 567 493 l 582 510 l 585 513 l 608 532 q 617 537 613 535 q 624 540 622 539 l 635 535 l 651 525 l 654 521 l 660 519 l 678 504 l 685 499 l 644 119 l 642 104 m 590 543 l 568 522 l 565 518 l 540 499 l 529 488 l 218 488 l 207 496 q 185 518 192 508 l 179 521 l 176 525 q 158 540 165 532 q 151 550 151 547 q 149 557 150 553 q 158 568 153 565 l 185 590 l 188 594 l 217 615 l 228 625 l 539 625 q 549 615 546 621 l 568 594 l 572 592 l 575 589 q 592 568 588 576 q 600 557 597 564 q 590 543 594 547 m 675 603 l 660 589 l 657 586 l 638 572 l 626 568 q 611 579 617 574 l 590 597 l 586 600 l 583 606 l 561 629 q 553 638 557 635 q 550 642 550 640 l 585 906 l 597 921 l 628 957 l 631 960 l 633 963 l 663 993 l 681 1007 l 688 1003 q 696 994 694 997 l 701 988 l 707 982 q 717 963 713 968 l 722 956 l 683 610 l 675 603 m 129 974 l 133 978 q 150 1007 144 1003 l 158 1018 l 258 908 l 228 649 l 215 638 l 185 613 l 181 611 l 149 586 l 133 576 l 125 582 l 117 594 l 114 599 l 111 603 l 99 624 l 93 631 l 129 968 l 129 974 z "},"y":{"ha":764,"x_min":93,"x_max":722,"o":"m 590 44 l 582 36 l 576 31 l 571 26 l 564 24 l 558 24 l 149 24 l 128 25 l 111 33 l 100 42 l 96 46 l 197 151 l 499 151 l 594 50 l 590 44 m 642 104 q 611 69 638 96 q 606 73 610 71 q 592 86 601 75 l 563 117 l 558 119 l 525 154 l 511 171 l 544 472 l 554 482 q 579 506 567 493 l 582 510 l 585 513 l 608 532 q 617 537 613 535 q 624 540 622 539 l 635 535 l 651 525 l 654 521 l 660 519 l 678 504 l 685 499 l 644 119 l 642 104 m 590 543 l 568 522 l 565 518 l 540 499 l 529 488 l 218 488 l 207 496 q 185 518 192 508 l 179 521 l 176 525 q 158 540 165 532 q 151 550 151 547 q 149 557 150 553 q 158 568 153 565 l 185 590 l 188 594 l 217 615 l 228 625 l 539 625 q 549 615 546 621 l 568 594 l 572 592 l 575 589 q 592 568 588 576 q 600 557 597 564 q 590 543 594 547 m 675 603 l 660 589 l 657 586 l 638 572 l 626 568 q 611 579 617 574 l 590 597 l 586 600 l 583 606 l 561 629 q 553 638 557 635 q 550 642 550 640 l 585 906 l 597 921 l 628 957 l 631 960 l 633 963 l 663 993 l 681 1007 l 688 1003 q 696 994 694 997 l 701 988 l 707 982 q 717 963 713 968 l 722 956 l 683 610 l 675 603 m 129 974 l 133 978 q 150 1007 144 1003 l 158 1018 l 258 908 l 228 649 l 215 638 l 185 613 l 181 611 l 149 586 l 133 576 l 125 582 l 117 594 l 114 599 l 111 603 l 99 624 l 93 631 l 129 968 l 129 974 z "},"z":{"ha":764,"x_min":42,"x_max":722,"o":"m 590 44 l 582 36 l 576 31 l 571 26 l 564 24 l 558 24 l 149 24 l 128 25 l 111 33 l 100 42 l 96 46 l 197 151 l 499 151 l 594 50 l 590 44 m 90 513 l 104 525 l 110 531 l 122 538 l 129 540 q 144 528 139 533 l 171 504 l 174 501 q 200 475 185 493 l 213 463 l 185 169 l 79 61 l 72 68 l 65 78 l 54 97 q 44 122 47 118 l 42 128 l 42 135 l 86 508 l 90 513 m 590 543 l 568 522 l 565 518 l 540 499 l 529 488 l 218 488 l 207 496 q 185 518 192 508 l 179 521 l 176 525 q 158 540 165 532 q 151 550 151 547 q 149 557 150 553 q 158 568 153 565 l 185 590 l 188 594 l 217 615 l 228 625 l 539 625 q 549 615 546 621 l 568 594 l 572 592 l 575 589 q 592 568 588 576 q 600 557 597 564 q 590 543 594 547 m 675 603 l 660 589 l 657 586 l 638 572 l 626 568 q 611 579 617 574 l 590 597 l 586 600 l 583 606 l 561 629 q 553 638 557 635 q 550 642 550 640 l 585 906 l 597 921 l 628 957 l 631 960 l 633 963 l 663 993 l 681 1007 l 688 1003 q 696 994 694 997 l 701 988 l 707 982 q 717 963 713 968 l 722 956 l 683 610 l 675 603 m 190 1046 l 203 1051 l 221 1056 l 608 1056 l 615 1054 q 631 1047 624 1054 l 647 1038 q 653 1033 651 1036 q 656 1028 654 1029 q 651 1021 654 1026 q 642 1007 649 1015 l 613 974 l 611 969 l 575 932 l 561 917 l 286 917 l 178 1036 l 190 1046 z "},"~":{"ha":764,"x_min":178,"x_max":656,"o":"m 190 1046 l 203 1051 l 221 1056 l 608 1056 l 615 1054 q 631 1047 624 1054 l 647 1038 q 653 1033 651 1036 q 656 1028 654 1029 q 651 1021 654 1026 q 642 1007 649 1015 l 613 974 l 611 969 l 575 932 l 561 917 l 286 917 l 178 1036 l 190 1046 z "}," ":{"ha":696,"x_min":0,"x_max":0,"o":""},"’":{"ha":61,"x_min":0,"x_max":150,"o":"m 3 1025 l 0 1043 q 6 1074 0 1061 q 22 1097 13 1088 q 47 1117 31 1107 l 75 1121 q 108 1114 90 1121 q 138 1090 125 1107 l 149 1069 l 150 1049 l 150 1043 q 142 1003 150 1022 q 132 982 135 985 l 129 978 l 115 951 q 97 923 104 932 q 81 906 90 914 q 63 892 71 899 q 38 876 56 886 q 17 864 19 865 l 24 875 l 42 901 q 47 917 42 910 l 54 933 l 60 953 l 63 971 l 61 982 q 57 989 60 988 l 50 989 l 33 996 l 19 1001 l 11 1010 l 3 1025 z "}}}
